<mxfile host="65bd71144e">
    <diagram id="z5QbKBS9YjllUTg7D-9P" name="Page-1">
        <mxGraphModel dx="968" dy="667" grid="1" gridSize="10" guides="1" tooltips="1" connect="1" arrows="1" fold="1" page="1" pageScale="1" pageWidth="827" pageHeight="1169" math="0" shadow="0">
            <root>
                <mxCell id="0"/>
                <mxCell id="1" parent="0"/>
                <mxCell id="324" value="" style="rounded=0;whiteSpace=wrap;html=1;strokeColor=default;" vertex="1" parent="1">
                    <mxGeometry x="39" y="2150" width="720" height="450" as="geometry"/>
                </mxCell>
                <mxCell id="370" value="" style="rounded=1;whiteSpace=wrap;html=1;dashed=1;" vertex="1" parent="1">
                    <mxGeometry x="74" y="2260" width="146.43" height="270" as="geometry"/>
                </mxCell>
                <mxCell id="229" value="" style="rounded=0;whiteSpace=wrap;html=1;strokeColor=default;" vertex="1" parent="1">
                    <mxGeometry x="40" y="1060" width="720" height="460" as="geometry"/>
                </mxCell>
                <mxCell id="269" value="区块链&lt;br&gt;节点1" style="rounded=1;whiteSpace=wrap;html=1;dashed=1;labelPosition=left;verticalLabelPosition=middle;align=right;verticalAlign=middle;" vertex="1" parent="1">
                    <mxGeometry x="81.26" y="1123" width="268.74" height="317" as="geometry"/>
                </mxCell>
                <mxCell id="lRrl1hdKO7GmZFAi6IMo-29" value="" style="rounded=0;whiteSpace=wrap;html=1;" parent="1" vertex="1">
                    <mxGeometry x="40" width="720" height="430" as="geometry"/>
                </mxCell>
                <mxCell id="lRrl1hdKO7GmZFAi6IMo-18" style="edgeStyle=orthogonalEdgeStyle;rounded=0;orthogonalLoop=1;jettySize=auto;html=1;exitX=0.5;exitY=1;exitDx=0;exitDy=0;startArrow=classic;startFill=1;" parent="1" source="lRrl1hdKO7GmZFAi6IMo-1" target="lRrl1hdKO7GmZFAi6IMo-3" edge="1">
                    <mxGeometry relative="1" as="geometry"/>
                </mxCell>
                <mxCell id="lRrl1hdKO7GmZFAi6IMo-23" value="共识" style="edgeLabel;html=1;align=center;verticalAlign=middle;resizable=0;points=[];" parent="lRrl1hdKO7GmZFAi6IMo-18" vertex="1" connectable="0">
                    <mxGeometry x="0.15" y="-1" relative="1" as="geometry">
                        <mxPoint as="offset"/>
                    </mxGeometry>
                </mxCell>
                <mxCell id="lRrl1hdKO7GmZFAi6IMo-1" value="共识记账节点" style="rounded=0;whiteSpace=wrap;html=1;" parent="1" vertex="1">
                    <mxGeometry x="160" y="100" width="120" height="60" as="geometry"/>
                </mxCell>
                <mxCell id="lRrl1hdKO7GmZFAi6IMo-21" style="edgeStyle=orthogonalEdgeStyle;rounded=0;orthogonalLoop=1;jettySize=auto;html=1;exitX=0;exitY=0.5;exitDx=0;exitDy=0;entryX=1;entryY=0.5;entryDx=0;entryDy=0;startArrow=classic;startFill=1;" parent="1" source="lRrl1hdKO7GmZFAi6IMo-2" target="lRrl1hdKO7GmZFAi6IMo-1" edge="1">
                    <mxGeometry relative="1" as="geometry"/>
                </mxCell>
                <mxCell id="lRrl1hdKO7GmZFAi6IMo-22" value="共识" style="edgeLabel;html=1;align=center;verticalAlign=middle;resizable=0;points=[];" parent="lRrl1hdKO7GmZFAi6IMo-21" vertex="1" connectable="0">
                    <mxGeometry y="-1" relative="1" as="geometry">
                        <mxPoint as="offset"/>
                    </mxGeometry>
                </mxCell>
                <mxCell id="lRrl1hdKO7GmZFAi6IMo-2" value="共识记账节点" style="rounded=0;whiteSpace=wrap;html=1;" parent="1" vertex="1">
                    <mxGeometry x="400" y="100" width="120" height="60" as="geometry"/>
                </mxCell>
                <mxCell id="lRrl1hdKO7GmZFAi6IMo-19" style="edgeStyle=orthogonalEdgeStyle;rounded=0;orthogonalLoop=1;jettySize=auto;html=1;exitX=1;exitY=0.5;exitDx=0;exitDy=0;entryX=0;entryY=0.5;entryDx=0;entryDy=0;startArrow=classic;startFill=1;" parent="1" source="lRrl1hdKO7GmZFAi6IMo-3" target="lRrl1hdKO7GmZFAi6IMo-4" edge="1">
                    <mxGeometry relative="1" as="geometry"/>
                </mxCell>
                <mxCell id="lRrl1hdKO7GmZFAi6IMo-25" value="共识" style="edgeLabel;html=1;align=center;verticalAlign=middle;resizable=0;points=[];" parent="lRrl1hdKO7GmZFAi6IMo-19" vertex="1" connectable="0">
                    <mxGeometry y="4" relative="1" as="geometry">
                        <mxPoint as="offset"/>
                    </mxGeometry>
                </mxCell>
                <mxCell id="lRrl1hdKO7GmZFAi6IMo-3" value="共识记账节点" style="rounded=0;whiteSpace=wrap;html=1;" parent="1" vertex="1">
                    <mxGeometry x="160" y="240" width="120" height="60" as="geometry"/>
                </mxCell>
                <mxCell id="lRrl1hdKO7GmZFAi6IMo-20" style="edgeStyle=orthogonalEdgeStyle;rounded=0;orthogonalLoop=1;jettySize=auto;html=1;exitX=0.5;exitY=0;exitDx=0;exitDy=0;entryX=0.5;entryY=1;entryDx=0;entryDy=0;startArrow=classic;startFill=1;" parent="1" source="lRrl1hdKO7GmZFAi6IMo-4" target="lRrl1hdKO7GmZFAi6IMo-2" edge="1">
                    <mxGeometry relative="1" as="geometry"/>
                </mxCell>
                <mxCell id="lRrl1hdKO7GmZFAi6IMo-24" value="共识" style="edgeLabel;html=1;align=center;verticalAlign=middle;resizable=0;points=[];" parent="lRrl1hdKO7GmZFAi6IMo-20" vertex="1" connectable="0">
                    <mxGeometry x="-0.1" y="-1" relative="1" as="geometry">
                        <mxPoint as="offset"/>
                    </mxGeometry>
                </mxCell>
                <mxCell id="lRrl1hdKO7GmZFAi6IMo-4" value="共识记账节点" style="rounded=0;whiteSpace=wrap;html=1;" parent="1" vertex="1">
                    <mxGeometry x="400" y="241" width="120" height="60" as="geometry"/>
                </mxCell>
                <mxCell id="lRrl1hdKO7GmZFAi6IMo-5" value="审计智能合约" style="shape=document;whiteSpace=wrap;html=1;boundedLbl=1;" parent="1" vertex="1">
                    <mxGeometry x="230" y="280" width="90" height="60" as="geometry"/>
                </mxCell>
                <mxCell id="lRrl1hdKO7GmZFAi6IMo-6" value="审计智能合约" style="shape=document;whiteSpace=wrap;html=1;boundedLbl=1;" parent="1" vertex="1">
                    <mxGeometry x="360" y="280" width="90" height="60" as="geometry"/>
                </mxCell>
                <mxCell id="lRrl1hdKO7GmZFAi6IMo-7" value="审计智能合约" style="shape=document;whiteSpace=wrap;html=1;boundedLbl=1;" parent="1" vertex="1">
                    <mxGeometry x="360" y="140" width="90" height="60" as="geometry"/>
                </mxCell>
                <mxCell id="lRrl1hdKO7GmZFAi6IMo-8" value="审计智能合约" style="shape=document;whiteSpace=wrap;html=1;boundedLbl=1;" parent="1" vertex="1">
                    <mxGeometry x="230" y="140" width="90" height="60" as="geometry"/>
                </mxCell>
                <mxCell id="lRrl1hdKO7GmZFAi6IMo-13" style="edgeStyle=orthogonalEdgeStyle;rounded=0;orthogonalLoop=1;jettySize=auto;html=1;exitX=0.5;exitY=1;exitDx=0;exitDy=0;entryX=0.5;entryY=1;entryDx=0;entryDy=0;startArrow=classic;startFill=1;dashed=1;" parent="1" source="lRrl1hdKO7GmZFAi6IMo-9" target="lRrl1hdKO7GmZFAi6IMo-10" edge="1">
                    <mxGeometry relative="1" as="geometry"/>
                </mxCell>
                <mxCell id="lRrl1hdKO7GmZFAi6IMo-17" value="P2P共享网络" style="edgeLabel;html=1;align=center;verticalAlign=middle;resizable=0;points=[];" parent="lRrl1hdKO7GmZFAi6IMo-13" vertex="1" connectable="0">
                    <mxGeometry x="-0.025" y="2" relative="1" as="geometry">
                        <mxPoint as="offset"/>
                    </mxGeometry>
                </mxCell>
                <mxCell id="lRrl1hdKO7GmZFAi6IMo-14" style="edgeStyle=orthogonalEdgeStyle;rounded=0;orthogonalLoop=1;jettySize=auto;html=1;exitX=0;exitY=0.5;exitDx=0;exitDy=0;entryX=0;entryY=0.5;entryDx=0;entryDy=0;startArrow=classic;startFill=1;dashed=1;" parent="1" source="lRrl1hdKO7GmZFAi6IMo-9" target="lRrl1hdKO7GmZFAi6IMo-12" edge="1">
                    <mxGeometry relative="1" as="geometry"/>
                </mxCell>
                <mxCell id="lRrl1hdKO7GmZFAi6IMo-28" value="P2P共享网络" style="edgeLabel;html=1;align=center;verticalAlign=middle;resizable=0;points=[];" parent="lRrl1hdKO7GmZFAi6IMo-14" vertex="1" connectable="0">
                    <mxGeometry x="0.0308" relative="1" as="geometry">
                        <mxPoint as="offset"/>
                    </mxGeometry>
                </mxCell>
                <mxCell id="lRrl1hdKO7GmZFAi6IMo-9" value="D机构&lt;br&gt;审计节点" style="ellipse;whiteSpace=wrap;html=1;aspect=fixed;dashed=1;" parent="1" vertex="1">
                    <mxGeometry x="120" y="280" width="80" height="80" as="geometry"/>
                </mxCell>
                <mxCell id="lRrl1hdKO7GmZFAi6IMo-39" style="edgeStyle=orthogonalEdgeStyle;rounded=0;orthogonalLoop=1;jettySize=auto;html=1;exitX=1;exitY=1;exitDx=0;exitDy=0;startArrow=classic;startFill=1;" parent="1" source="lRrl1hdKO7GmZFAi6IMo-10" target="lRrl1hdKO7GmZFAi6IMo-38" edge="1">
                    <mxGeometry relative="1" as="geometry"/>
                </mxCell>
                <mxCell id="lRrl1hdKO7GmZFAi6IMo-10" value="C机构&lt;br&gt;审计节点" style="ellipse;whiteSpace=wrap;html=1;aspect=fixed;dashed=1;" parent="1" vertex="1">
                    <mxGeometry x="480" y="280" width="80" height="80" as="geometry"/>
                </mxCell>
                <mxCell id="lRrl1hdKO7GmZFAi6IMo-16" style="edgeStyle=orthogonalEdgeStyle;rounded=0;orthogonalLoop=1;jettySize=auto;html=1;exitX=1;exitY=0.5;exitDx=0;exitDy=0;entryX=1;entryY=0.5;entryDx=0;entryDy=0;startArrow=classic;startFill=1;dashed=1;" parent="1" source="lRrl1hdKO7GmZFAi6IMo-11" target="lRrl1hdKO7GmZFAi6IMo-10" edge="1">
                    <mxGeometry relative="1" as="geometry"/>
                </mxCell>
                <mxCell id="lRrl1hdKO7GmZFAi6IMo-26" value="P2P共享网络" style="edgeLabel;html=1;align=center;verticalAlign=middle;resizable=0;points=[];" parent="lRrl1hdKO7GmZFAi6IMo-16" vertex="1" connectable="0">
                    <mxGeometry x="-0.0308" y="1" relative="1" as="geometry">
                        <mxPoint as="offset"/>
                    </mxGeometry>
                </mxCell>
                <mxCell id="lRrl1hdKO7GmZFAi6IMo-44" style="edgeStyle=orthogonalEdgeStyle;rounded=0;orthogonalLoop=1;jettySize=auto;html=1;exitX=1;exitY=0;exitDx=0;exitDy=0;entryX=0.5;entryY=0;entryDx=0;entryDy=0;startArrow=classic;startFill=1;" parent="1" source="lRrl1hdKO7GmZFAi6IMo-11" target="lRrl1hdKO7GmZFAi6IMo-42" edge="1">
                    <mxGeometry relative="1" as="geometry"/>
                </mxCell>
                <mxCell id="lRrl1hdKO7GmZFAi6IMo-11" value="B机构&lt;br&gt;审计节点" style="ellipse;whiteSpace=wrap;html=1;aspect=fixed;dashed=1;" parent="1" vertex="1">
                    <mxGeometry x="480" y="60" width="80" height="80" as="geometry"/>
                </mxCell>
                <mxCell id="lRrl1hdKO7GmZFAi6IMo-15" style="edgeStyle=orthogonalEdgeStyle;rounded=0;orthogonalLoop=1;jettySize=auto;html=1;exitX=0.5;exitY=0;exitDx=0;exitDy=0;entryX=0.5;entryY=0;entryDx=0;entryDy=0;startArrow=classic;startFill=1;dashed=1;" parent="1" source="lRrl1hdKO7GmZFAi6IMo-12" target="lRrl1hdKO7GmZFAi6IMo-11" edge="1">
                    <mxGeometry relative="1" as="geometry">
                        <Array as="points">
                            <mxPoint x="160" y="40"/>
                            <mxPoint x="520" y="40"/>
                        </Array>
                    </mxGeometry>
                </mxCell>
                <mxCell id="lRrl1hdKO7GmZFAi6IMo-27" value="P2P共享网络" style="edgeLabel;html=1;align=center;verticalAlign=middle;resizable=0;points=[];" parent="lRrl1hdKO7GmZFAi6IMo-15" vertex="1" connectable="0">
                    <mxGeometry x="-0.02" y="2" relative="1" as="geometry">
                        <mxPoint as="offset"/>
                    </mxGeometry>
                </mxCell>
                <mxCell id="lRrl1hdKO7GmZFAi6IMo-12" value="&amp;nbsp;A机构&lt;br&gt;审计节点" style="ellipse;whiteSpace=wrap;html=1;aspect=fixed;dashed=1;" parent="1" vertex="1">
                    <mxGeometry x="120" y="60" width="80" height="80" as="geometry"/>
                </mxCell>
                <mxCell id="lRrl1hdKO7GmZFAi6IMo-32" value="3" style="whiteSpace=wrap;html=1;shape=partialRectangle;top=0;left=0;bottom=1;right=0;points=[[0,1],[1,1]];fillColor=none;align=center;verticalAlign=bottom;routingCenterY=0.5;snapToPoint=1;recursiveResize=0;autosize=1;treeFolding=1;treeMoving=1;newEdgeStyle={&quot;edgeStyle&quot;:&quot;entityRelationEdgeStyle&quot;,&quot;startArrow&quot;:&quot;none&quot;,&quot;endArrow&quot;:&quot;none&quot;,&quot;segment&quot;:10,&quot;curved&quot;:1};" parent="1" vertex="1">
                    <mxGeometry x="580" y="30" width="40" height="20" as="geometry"/>
                </mxCell>
                <mxCell id="lRrl1hdKO7GmZFAi6IMo-33" value="" style="edgeStyle=entityRelationEdgeStyle;startArrow=none;endArrow=none;segment=10;curved=1;" parent="1" target="lRrl1hdKO7GmZFAi6IMo-32" edge="1">
                    <mxGeometry relative="1" as="geometry">
                        <mxPoint x="520" y="70" as="sourcePoint"/>
                    </mxGeometry>
                </mxCell>
                <mxCell id="lRrl1hdKO7GmZFAi6IMo-34" value="4" style="whiteSpace=wrap;html=1;shape=partialRectangle;top=0;left=0;bottom=1;right=0;points=[[0,1],[1,1]];fillColor=none;align=center;verticalAlign=bottom;routingCenterY=0.5;snapToPoint=1;recursiveResize=0;autosize=1;treeFolding=1;treeMoving=1;newEdgeStyle={&quot;edgeStyle&quot;:&quot;entityRelationEdgeStyle&quot;,&quot;startArrow&quot;:&quot;none&quot;,&quot;endArrow&quot;:&quot;none&quot;,&quot;segment&quot;:10,&quot;curved&quot;:1};" parent="1" vertex="1">
                    <mxGeometry x="320" y="70" width="40" height="20" as="geometry"/>
                </mxCell>
                <mxCell id="lRrl1hdKO7GmZFAi6IMo-35" value="" style="edgeStyle=entityRelationEdgeStyle;startArrow=none;endArrow=none;segment=10;curved=1;" parent="1" target="lRrl1hdKO7GmZFAi6IMo-34" edge="1">
                    <mxGeometry relative="1" as="geometry">
                        <mxPoint x="260" y="110" as="sourcePoint"/>
                    </mxGeometry>
                </mxCell>
                <mxCell id="lRrl1hdKO7GmZFAi6IMo-36" value="5" style="whiteSpace=wrap;html=1;shape=partialRectangle;top=0;left=0;bottom=1;right=0;points=[[0,1],[1,1]];fillColor=none;align=center;verticalAlign=bottom;routingCenterY=0.5;snapToPoint=1;recursiveResize=0;autosize=1;treeFolding=1;treeMoving=1;newEdgeStyle={&quot;edgeStyle&quot;:&quot;entityRelationEdgeStyle&quot;,&quot;startArrow&quot;:&quot;none&quot;,&quot;endArrow&quot;:&quot;none&quot;,&quot;segment&quot;:10,&quot;curved&quot;:1};" parent="1" vertex="1">
                    <mxGeometry x="330" y="340" width="40" height="20" as="geometry"/>
                </mxCell>
                <mxCell id="lRrl1hdKO7GmZFAi6IMo-37" value="" style="edgeStyle=entityRelationEdgeStyle;startArrow=none;endArrow=none;segment=10;curved=1;" parent="1" target="lRrl1hdKO7GmZFAi6IMo-36" edge="1">
                    <mxGeometry relative="1" as="geometry">
                        <mxPoint x="270" y="330" as="sourcePoint"/>
                    </mxGeometry>
                </mxCell>
                <mxCell id="lRrl1hdKO7GmZFAi6IMo-47" style="edgeStyle=orthogonalEdgeStyle;rounded=0;orthogonalLoop=1;jettySize=auto;html=1;exitX=0.5;exitY=0;exitDx=0;exitDy=0;exitPerimeter=0;entryX=0.5;entryY=1;entryDx=0;entryDy=0;startArrow=none;startFill=0;" parent="1" source="lRrl1hdKO7GmZFAi6IMo-38" target="lRrl1hdKO7GmZFAi6IMo-42" edge="1">
                    <mxGeometry relative="1" as="geometry"/>
                </mxCell>
                <mxCell id="lRrl1hdKO7GmZFAi6IMo-38" value="用户端" style="shape=umlActor;verticalLabelPosition=bottom;verticalAlign=top;html=1;outlineConnect=0;" parent="1" vertex="1">
                    <mxGeometry x="630" y="340" width="30" height="60" as="geometry"/>
                </mxCell>
                <mxCell id="lRrl1hdKO7GmZFAi6IMo-40" value="1" style="whiteSpace=wrap;html=1;shape=partialRectangle;top=0;left=0;bottom=1;right=0;points=[[0,1],[1,1]];fillColor=none;align=center;verticalAlign=bottom;routingCenterY=0.5;snapToPoint=1;recursiveResize=0;autosize=1;treeFolding=1;treeMoving=1;newEdgeStyle={&quot;edgeStyle&quot;:&quot;entityRelationEdgeStyle&quot;,&quot;startArrow&quot;:&quot;none&quot;,&quot;endArrow&quot;:&quot;none&quot;,&quot;segment&quot;:10,&quot;curved&quot;:1};" parent="1" vertex="1">
                    <mxGeometry x="700" y="310" width="40" height="20" as="geometry"/>
                </mxCell>
                <mxCell id="lRrl1hdKO7GmZFAi6IMo-41" value="" style="edgeStyle=entityRelationEdgeStyle;startArrow=none;endArrow=none;segment=10;curved=1;" parent="1" target="lRrl1hdKO7GmZFAi6IMo-40" edge="1">
                    <mxGeometry relative="1" as="geometry">
                        <mxPoint x="640" y="350" as="sourcePoint"/>
                    </mxGeometry>
                </mxCell>
                <mxCell id="lRrl1hdKO7GmZFAi6IMo-42" value="B机构&lt;br&gt;审计控制台" style="shape=hexagon;perimeter=hexagonPerimeter2;whiteSpace=wrap;html=1;fixedSize=1;" parent="1" vertex="1">
                    <mxGeometry x="630" y="161" width="90" height="80" as="geometry"/>
                </mxCell>
                <mxCell id="lRrl1hdKO7GmZFAi6IMo-45" value="2" style="whiteSpace=wrap;html=1;shape=partialRectangle;top=0;left=0;bottom=1;right=0;points=[[0,1],[1,1]];fillColor=none;align=center;verticalAlign=bottom;routingCenterY=0.5;snapToPoint=1;recursiveResize=0;autosize=1;treeFolding=1;treeMoving=1;newEdgeStyle={&quot;edgeStyle&quot;:&quot;entityRelationEdgeStyle&quot;,&quot;startArrow&quot;:&quot;none&quot;,&quot;endArrow&quot;:&quot;none&quot;,&quot;segment&quot;:10,&quot;curved&quot;:1};" parent="1" vertex="1">
                    <mxGeometry x="720" y="130" width="40" height="20" as="geometry"/>
                </mxCell>
                <mxCell id="lRrl1hdKO7GmZFAi6IMo-46" value="" style="edgeStyle=entityRelationEdgeStyle;startArrow=none;endArrow=none;segment=10;curved=1;" parent="1" target="lRrl1hdKO7GmZFAi6IMo-45" edge="1">
                    <mxGeometry relative="1" as="geometry">
                        <mxPoint x="660" y="170" as="sourcePoint"/>
                    </mxGeometry>
                </mxCell>
                <mxCell id="116" value="" style="rounded=0;whiteSpace=wrap;html=1;strokeColor=default;" vertex="1" parent="1">
                    <mxGeometry x="40" y="480" width="720" height="440" as="geometry"/>
                </mxCell>
                <mxCell id="117" value="&lt;b&gt;区块链节点适配装置&lt;/b&gt;" style="rounded=0;whiteSpace=wrap;html=1;strokeColor=default;labelPosition=center;verticalLabelPosition=middle;align=center;verticalAlign=middle;" vertex="1" parent="1">
                    <mxGeometry x="93.5" y="806" width="140" height="60" as="geometry"/>
                </mxCell>
                <mxCell id="118" style="edgeStyle=orthogonalEdgeStyle;rounded=0;orthogonalLoop=1;jettySize=auto;html=1;exitX=1;exitY=0.5;exitDx=0;exitDy=0;startArrow=classic;startFill=1;endArrow=classic;endFill=1;strokeWidth=2;entryX=0;entryY=0.5;entryDx=0;entryDy=0;" edge="1" parent="1" source="119" target="178">
                    <mxGeometry relative="1" as="geometry">
                        <mxPoint x="310.5" y="651" as="targetPoint"/>
                    </mxGeometry>
                </mxCell>
                <mxCell id="119" value="页面交互操作" style="rounded=0;whiteSpace=wrap;html=1;strokeColor=default;fontStyle=1" vertex="1" parent="1">
                    <mxGeometry x="129.5" y="621" width="120" height="60" as="geometry"/>
                </mxCell>
                <mxCell id="120" style="edgeStyle=orthogonalEdgeStyle;rounded=0;orthogonalLoop=1;jettySize=auto;html=1;exitX=1;exitY=0.5;exitDx=0;exitDy=0;entryX=0;entryY=0.5;entryDx=0;entryDy=0;startArrow=classic;startFill=1;endArrow=classic;endFill=1;strokeWidth=2;" edge="1" parent="1" source="178" target="123">
                    <mxGeometry relative="1" as="geometry">
                        <mxPoint x="430.5" y="651" as="sourcePoint"/>
                    </mxGeometry>
                </mxCell>
                <mxCell id="121" style="edgeStyle=orthogonalEdgeStyle;rounded=0;orthogonalLoop=1;jettySize=auto;html=1;exitX=0.5;exitY=1;exitDx=0;exitDy=0;entryX=0.5;entryY=0;entryDx=0;entryDy=0;startArrow=classic;startFill=1;endArrow=classic;endFill=1;strokeWidth=2;" edge="1" parent="1" source="178" target="124">
                    <mxGeometry relative="1" as="geometry">
                        <mxPoint x="365.5" y="761" as="sourcePoint"/>
                    </mxGeometry>
                </mxCell>
                <mxCell id="123" value="外部服务接口" style="rounded=0;whiteSpace=wrap;html=1;strokeColor=default;fontStyle=1" vertex="1" parent="1">
                    <mxGeometry x="490" y="621" width="120" height="60" as="geometry"/>
                </mxCell>
                <mxCell id="124" value="&lt;b&gt;智能合约适配装置&lt;/b&gt;" style="rounded=0;whiteSpace=wrap;html=1;strokeColor=default;labelPosition=center;verticalLabelPosition=middle;align=center;verticalAlign=middle;" vertex="1" parent="1">
                    <mxGeometry x="297.5" y="806" width="140" height="60" as="geometry"/>
                </mxCell>
                <mxCell id="125" value="&lt;b&gt;审计节点适配装置&lt;/b&gt;" style="rounded=0;whiteSpace=wrap;html=1;strokeColor=default;labelPosition=center;verticalLabelPosition=middle;align=center;verticalAlign=middle;" vertex="1" parent="1">
                    <mxGeometry x="497.5" y="806" width="140" height="60" as="geometry"/>
                </mxCell>
                <mxCell id="138" value="2" style="whiteSpace=wrap;html=1;shape=partialRectangle;top=0;left=0;bottom=1;right=0;points=[[0,1],[1,1]];fillColor=none;align=center;verticalAlign=bottom;routingCenterY=0.5;snapToPoint=1;recursiveResize=0;autosize=1;treeFolding=1;treeMoving=1;newEdgeStyle={&quot;edgeStyle&quot;:&quot;entityRelationEdgeStyle&quot;,&quot;startArrow&quot;:&quot;none&quot;,&quot;endArrow&quot;:&quot;none&quot;,&quot;segment&quot;:10,&quot;curved&quot;:1};strokeColor=default;strokeWidth=1;" vertex="1" parent="1">
                    <mxGeometry x="446.19" y="499" width="40" height="20" as="geometry"/>
                </mxCell>
                <mxCell id="139" value="" style="edgeStyle=entityRelationEdgeStyle;startArrow=none;endArrow=none;segment=10;curved=1;rounded=0;sketch=0;strokeColor=default;strokeWidth=1;jumpStyle=none;" edge="1" parent="1" target="138">
                    <mxGeometry relative="1" as="geometry">
                        <mxPoint x="386.19000000000005" y="539" as="sourcePoint"/>
                    </mxGeometry>
                </mxCell>
                <mxCell id="140" value="21" style="whiteSpace=wrap;html=1;shape=partialRectangle;top=0;left=0;bottom=1;right=0;points=[[0,1],[1,1]];fillColor=none;align=center;verticalAlign=bottom;routingCenterY=0.5;snapToPoint=1;recursiveResize=0;autosize=1;treeFolding=1;treeMoving=1;newEdgeStyle={&quot;edgeStyle&quot;:&quot;entityRelationEdgeStyle&quot;,&quot;startArrow&quot;:&quot;none&quot;,&quot;endArrow&quot;:&quot;none&quot;,&quot;segment&quot;:10,&quot;curved&quot;:1};strokeColor=default;strokeWidth=1;" vertex="1" parent="1">
                    <mxGeometry x="610" y="581" width="50" height="20" as="geometry"/>
                </mxCell>
                <mxCell id="141" value="" style="edgeStyle=entityRelationEdgeStyle;startArrow=none;endArrow=none;segment=10;curved=1;rounded=0;sketch=0;strokeColor=default;strokeWidth=1;jumpStyle=none;" edge="1" parent="1" target="140">
                    <mxGeometry relative="1" as="geometry">
                        <mxPoint x="553.5" y="621" as="sourcePoint"/>
                    </mxGeometry>
                </mxCell>
                <mxCell id="142" value="23" style="whiteSpace=wrap;html=1;shape=partialRectangle;top=0;left=0;bottom=1;right=0;points=[[0,1],[1,1]];fillColor=none;align=center;verticalAlign=bottom;routingCenterY=0.5;snapToPoint=1;recursiveResize=0;autosize=1;treeFolding=1;treeMoving=1;newEdgeStyle={&quot;edgeStyle&quot;:&quot;entityRelationEdgeStyle&quot;,&quot;startArrow&quot;:&quot;none&quot;,&quot;endArrow&quot;:&quot;none&quot;,&quot;segment&quot;:10,&quot;curved&quot;:1};strokeColor=default;strokeWidth=1;" vertex="1" parent="1">
                    <mxGeometry x="222.88" y="581" width="50" height="20" as="geometry"/>
                </mxCell>
                <mxCell id="143" value="" style="edgeStyle=entityRelationEdgeStyle;startArrow=none;endArrow=none;segment=10;curved=1;rounded=0;sketch=0;strokeColor=default;strokeWidth=1;jumpStyle=none;" edge="1" parent="1" target="142">
                    <mxGeometry relative="1" as="geometry">
                        <mxPoint x="166.3800000000001" y="621" as="sourcePoint"/>
                    </mxGeometry>
                </mxCell>
                <mxCell id="144" value="24" style="whiteSpace=wrap;html=1;shape=partialRectangle;top=0;left=0;bottom=1;right=0;points=[[0,1],[1,1]];fillColor=none;align=center;verticalAlign=bottom;routingCenterY=0.5;snapToPoint=1;recursiveResize=0;autosize=1;treeFolding=1;treeMoving=1;newEdgeStyle={&quot;edgeStyle&quot;:&quot;entityRelationEdgeStyle&quot;,&quot;startArrow&quot;:&quot;none&quot;,&quot;endArrow&quot;:&quot;none&quot;,&quot;segment&quot;:10,&quot;curved&quot;:1};strokeColor=default;strokeWidth=1;" vertex="1" parent="1">
                    <mxGeometry x="437.5" y="761" width="50" height="20" as="geometry"/>
                </mxCell>
                <mxCell id="145" value="" style="edgeStyle=entityRelationEdgeStyle;startArrow=none;endArrow=none;segment=10;curved=1;rounded=0;sketch=0;strokeColor=default;strokeWidth=1;jumpStyle=none;exitX=0.5;exitY=0;exitDx=0;exitDy=0;" edge="1" parent="1" source="124">
                    <mxGeometry relative="1" as="geometry">
                        <mxPoint x="363.38" y="682" as="sourcePoint"/>
                        <mxPoint x="439.91176470588243" y="781.5882352941185" as="targetPoint"/>
                    </mxGeometry>
                </mxCell>
                <mxCell id="146" value="26" style="whiteSpace=wrap;html=1;shape=partialRectangle;top=0;left=0;bottom=1;right=0;points=[[0,1],[1,1]];fillColor=none;align=center;verticalAlign=bottom;routingCenterY=0.5;snapToPoint=1;recursiveResize=0;autosize=1;treeFolding=1;treeMoving=1;newEdgeStyle={&quot;edgeStyle&quot;:&quot;entityRelationEdgeStyle&quot;,&quot;startArrow&quot;:&quot;none&quot;,&quot;endArrow&quot;:&quot;none&quot;,&quot;segment&quot;:10,&quot;curved&quot;:1};strokeColor=default;strokeWidth=1;" vertex="1" parent="1">
                    <mxGeometry x="610" y="766" width="50" height="20" as="geometry"/>
                </mxCell>
                <mxCell id="147" value="" style="edgeStyle=entityRelationEdgeStyle;startArrow=none;endArrow=none;segment=10;curved=1;rounded=0;sketch=0;strokeColor=default;strokeWidth=1;jumpStyle=none;" edge="1" parent="1" target="146">
                    <mxGeometry relative="1" as="geometry">
                        <mxPoint x="553.5" y="806" as="sourcePoint"/>
                    </mxGeometry>
                </mxCell>
                <mxCell id="150" value="22" style="whiteSpace=wrap;html=1;shape=partialRectangle;top=0;left=0;bottom=1;right=0;points=[[0,1],[1,1]];fillColor=none;align=center;verticalAlign=bottom;routingCenterY=0.5;snapToPoint=1;recursiveResize=0;autosize=1;treeFolding=1;treeMoving=1;newEdgeStyle={&quot;edgeStyle&quot;:&quot;entityRelationEdgeStyle&quot;,&quot;startArrow&quot;:&quot;none&quot;,&quot;endArrow&quot;:&quot;none&quot;,&quot;segment&quot;:10,&quot;curved&quot;:1};strokeColor=default;strokeWidth=1;" vertex="1" parent="1">
                    <mxGeometry x="428.76" y="570" width="50" height="20" as="geometry"/>
                </mxCell>
                <mxCell id="151" value="" style="edgeStyle=entityRelationEdgeStyle;startArrow=none;endArrow=none;segment=10;curved=1;rounded=0;sketch=0;strokeColor=default;strokeWidth=1;jumpStyle=none;" edge="1" parent="1">
                    <mxGeometry relative="1" as="geometry">
                        <mxPoint x="374.44000000000005" y="611" as="sourcePoint"/>
                        <mxPoint x="431.0882352941178" y="590.5294117647059" as="targetPoint"/>
                    </mxGeometry>
                </mxCell>
                <mxCell id="152" value="25" style="whiteSpace=wrap;html=1;shape=partialRectangle;top=0;left=0;bottom=1;right=0;points=[[0,1],[1,1]];fillColor=none;align=center;verticalAlign=bottom;routingCenterY=0.5;snapToPoint=1;recursiveResize=0;autosize=1;treeFolding=1;treeMoving=1;newEdgeStyle={&quot;edgeStyle&quot;:&quot;entityRelationEdgeStyle&quot;,&quot;startArrow&quot;:&quot;none&quot;,&quot;endArrow&quot;:&quot;none&quot;,&quot;segment&quot;:10,&quot;curved&quot;:1};strokeColor=default;strokeWidth=1;" vertex="1" parent="1">
                    <mxGeometry x="216.13" y="766" width="50" height="20" as="geometry"/>
                </mxCell>
                <mxCell id="153" value="" style="edgeStyle=entityRelationEdgeStyle;startArrow=none;endArrow=none;segment=10;curved=1;rounded=0;sketch=0;strokeColor=default;strokeWidth=1;jumpStyle=none;" edge="1" parent="1" target="152">
                    <mxGeometry relative="1" as="geometry">
                        <mxPoint x="159.6300000000001" y="806" as="sourcePoint"/>
                    </mxGeometry>
                </mxCell>
                <mxCell id="178" value="用户操作和&lt;br&gt;接入适配装置" style="shape=hexagon;perimeter=hexagonPerimeter2;whiteSpace=wrap;html=1;fixedSize=1;" vertex="1" parent="1">
                    <mxGeometry x="322.5" y="611" width="90" height="80" as="geometry"/>
                </mxCell>
                <mxCell id="181" style="edgeStyle=orthogonalEdgeStyle;rounded=0;orthogonalLoop=1;jettySize=auto;html=1;exitX=0.625;exitY=1;exitDx=0;exitDy=0;startArrow=classic;startFill=1;endArrow=classic;endFill=1;strokeWidth=2;" edge="1" parent="1" source="178">
                    <mxGeometry relative="1" as="geometry">
                        <mxPoint x="377.5" y="701" as="sourcePoint"/>
                        <mxPoint x="570" y="810" as="targetPoint"/>
                        <Array as="points">
                            <mxPoint x="379" y="740"/>
                            <mxPoint x="570" y="740"/>
                        </Array>
                    </mxGeometry>
                </mxCell>
                <mxCell id="182" style="edgeStyle=orthogonalEdgeStyle;rounded=0;orthogonalLoop=1;jettySize=auto;html=1;exitX=0.375;exitY=1;exitDx=0;exitDy=0;entryX=0.5;entryY=0;entryDx=0;entryDy=0;startArrow=classic;startFill=1;endArrow=classic;endFill=1;strokeWidth=2;" edge="1" parent="1" source="178" target="117">
                    <mxGeometry relative="1" as="geometry">
                        <mxPoint x="377.5" y="701" as="sourcePoint"/>
                        <mxPoint x="377.5" y="816" as="targetPoint"/>
                        <Array as="points">
                            <mxPoint x="356" y="740"/>
                            <mxPoint x="164" y="740"/>
                        </Array>
                    </mxGeometry>
                </mxCell>
                <mxCell id="184" value="" style="rounded=0;whiteSpace=wrap;html=1;fillColor=none;fontColor=default;labelBorderColor=none;labelBackgroundColor=none;" vertex="1" parent="1">
                    <mxGeometry x="19" y="2810" width="790" height="600" as="geometry"/>
                </mxCell>
                <mxCell id="185" value="用户设备" style="rounded=0;whiteSpace=wrap;labelBackgroundColor=none;fillColor=none;fontColor=default;strokeColor=#999999;labelBorderColor=none;" vertex="1" parent="1">
                    <mxGeometry x="49" y="2890" width="120" height="40" as="geometry"/>
                </mxCell>
                <mxCell id="186" value="审计节点" style="rounded=0;whiteSpace=wrap;labelBackgroundColor=none;fillColor=none;fontColor=default;strokeColor=#999999;labelBorderColor=none;" vertex="1" parent="1">
                    <mxGeometry x="249" y="2890" width="120" height="40" as="geometry"/>
                </mxCell>
                <mxCell id="187" value="共识记账节点" style="rounded=0;whiteSpace=wrap;labelBackgroundColor=none;fillColor=none;fontColor=default;strokeColor=#999999;labelBorderColor=none;" vertex="1" parent="1">
                    <mxGeometry x="449" y="2890" width="120" height="40" as="geometry"/>
                </mxCell>
                <mxCell id="188" value="系统合约服务" style="rounded=0;whiteSpace=wrap;labelBackgroundColor=none;fillColor=none;fontColor=default;strokeColor=#999999;labelBorderColor=none;" vertex="1" parent="1">
                    <mxGeometry x="649" y="2890" width="120" height="40" as="geometry"/>
                </mxCell>
                <mxCell id="189" value="" style="endArrow=none;dashed=1;strokeWidth=3;entryX=0.445;entryY=1.07;entryDx=0;entryDy=0;entryPerimeter=0;labelBackgroundColor=none;fontColor=default;strokeColor=#999999;labelBorderColor=none;" edge="1" parent="1">
                    <mxGeometry width="50" height="50" relative="1" as="geometry">
                        <mxPoint x="106.99999999999999" y="3390" as="sourcePoint"/>
                        <mxPoint x="107.40000000000008" y="2932.8" as="targetPoint"/>
                    </mxGeometry>
                </mxCell>
                <mxCell id="190" value="" style="endArrow=none;dashed=1;strokeWidth=3;entryX=0.445;entryY=1.07;entryDx=0;entryDy=0;entryPerimeter=0;labelBackgroundColor=none;fontColor=default;strokeColor=#999999;labelBorderColor=none;" edge="1" parent="1">
                    <mxGeometry width="50" height="50" relative="1" as="geometry">
                        <mxPoint x="308.5" y="3387.2" as="sourcePoint"/>
                        <mxPoint x="308.9000000000001" y="2930" as="targetPoint"/>
                    </mxGeometry>
                </mxCell>
                <mxCell id="191" value="" style="endArrow=none;dashed=1;strokeWidth=3;entryX=0.445;entryY=1.07;entryDx=0;entryDy=0;entryPerimeter=0;labelBackgroundColor=none;fontColor=default;strokeColor=#999999;labelBorderColor=none;" edge="1" parent="1">
                    <mxGeometry width="50" height="50" relative="1" as="geometry">
                        <mxPoint x="508.5" y="3387.2" as="sourcePoint"/>
                        <mxPoint x="508.9000000000001" y="2930" as="targetPoint"/>
                    </mxGeometry>
                </mxCell>
                <mxCell id="192" value="" style="endArrow=none;dashed=1;strokeWidth=3;entryX=0.445;entryY=1.07;entryDx=0;entryDy=0;entryPerimeter=0;labelBackgroundColor=none;fontColor=default;strokeColor=#999999;labelBorderColor=none;" edge="1" parent="1">
                    <mxGeometry width="50" height="50" relative="1" as="geometry">
                        <mxPoint x="708.5" y="3387.2" as="sourcePoint"/>
                        <mxPoint x="708.9000000000001" y="2930" as="targetPoint"/>
                    </mxGeometry>
                </mxCell>
                <mxCell id="193" value="" style="endArrow=classic;html=1;strokeWidth=2;labelBackgroundColor=none;fontColor=default;labelBorderColor=none;strokeColor=#999999;" edge="1" parent="1">
                    <mxGeometry width="50" height="50" relative="1" as="geometry">
                        <mxPoint x="108.99999999999999" y="2970" as="sourcePoint"/>
                        <mxPoint x="509" y="2970" as="targetPoint"/>
                    </mxGeometry>
                </mxCell>
                <mxCell id="194" value="成员接入校验" style="edgeLabel;html=1;align=center;verticalAlign=middle;resizable=0;points=[];labelBackgroundColor=none;fontColor=default;labelBorderColor=none;" vertex="1" connectable="0" parent="193">
                    <mxGeometry x="-0.274" y="1" relative="1" as="geometry">
                        <mxPoint as="offset"/>
                    </mxGeometry>
                </mxCell>
                <mxCell id="195" value="" style="endArrow=classic;html=1;strokeWidth=2;labelBackgroundColor=none;fontColor=default;labelBorderColor=none;strokeColor=#999999;" edge="1" parent="1">
                    <mxGeometry width="50" height="50" relative="1" as="geometry">
                        <mxPoint x="310" y="3079" as="sourcePoint"/>
                        <mxPoint x="709" y="3079" as="targetPoint"/>
                    </mxGeometry>
                </mxCell>
                <mxCell id="196" value="属性策略请求" style="edgeLabel;html=1;align=center;verticalAlign=middle;resizable=0;points=[];labelBackgroundColor=none;fontColor=default;labelBorderColor=none;" vertex="1" connectable="0" parent="195">
                    <mxGeometry x="-0.426" y="1" relative="1" as="geometry">
                        <mxPoint as="offset"/>
                    </mxGeometry>
                </mxCell>
                <mxCell id="197" value="" style="endArrow=classic;html=1;strokeWidth=2;labelBackgroundColor=none;fontColor=default;labelBorderColor=none;strokeColor=#999999;" edge="1" parent="1">
                    <mxGeometry width="50" height="50" relative="1" as="geometry">
                        <mxPoint x="108.99999999999999" y="3030" as="sourcePoint"/>
                        <mxPoint x="309" y="3030" as="targetPoint"/>
                    </mxGeometry>
                </mxCell>
                <mxCell id="198" value="审计请求" style="edgeLabel;html=1;align=center;verticalAlign=middle;resizable=0;points=[];labelBackgroundColor=none;fontColor=default;labelBorderColor=none;" vertex="1" connectable="0" parent="197">
                    <mxGeometry x="0.1721" y="-1" relative="1" as="geometry">
                        <mxPoint x="-16" as="offset"/>
                    </mxGeometry>
                </mxCell>
                <mxCell id="201" value="" style="curved=1;endArrow=classic;html=1;strokeWidth=2;dashed=1;dashPattern=1 1;labelBackgroundColor=none;fontColor=default;labelBorderColor=none;strokeColor=#999999;" edge="1" parent="1">
                    <mxGeometry width="50" height="50" relative="1" as="geometry">
                        <mxPoint x="309" y="3030" as="sourcePoint"/>
                        <mxPoint x="309" y="3070" as="targetPoint"/>
                        <Array as="points">
                            <mxPoint x="339" y="3030"/>
                            <mxPoint x="339" y="3070"/>
                        </Array>
                    </mxGeometry>
                </mxCell>
                <mxCell id="202" value="" style="curved=1;endArrow=classic;html=1;strokeWidth=2;dashed=1;dashPattern=1 1;labelBackgroundColor=none;fontColor=default;labelBorderColor=none;strokeColor=#999999;" edge="1" parent="1">
                    <mxGeometry width="50" height="50" relative="1" as="geometry">
                        <mxPoint x="509" y="2970" as="sourcePoint"/>
                        <mxPoint x="509" y="3010" as="targetPoint"/>
                        <Array as="points">
                            <mxPoint x="539" y="2970"/>
                            <mxPoint x="539" y="3010"/>
                        </Array>
                    </mxGeometry>
                </mxCell>
                <mxCell id="203" value="" style="curved=1;endArrow=classic;html=1;strokeWidth=2;dashed=1;dashPattern=1 1;labelBackgroundColor=none;fontColor=default;labelBorderColor=none;strokeColor=#999999;" edge="1" parent="1">
                    <mxGeometry width="50" height="50" relative="1" as="geometry">
                        <mxPoint x="509" y="3270" as="sourcePoint"/>
                        <mxPoint x="509" y="3310" as="targetPoint"/>
                        <Array as="points">
                            <mxPoint x="539" y="3270"/>
                            <mxPoint x="539" y="3310"/>
                        </Array>
                    </mxGeometry>
                </mxCell>
                <mxCell id="206" value="规则检查" style="text;html=1;strokeColor=none;fillColor=none;align=center;verticalAlign=middle;whiteSpace=wrap;rounded=0;labelBackgroundColor=none;fontColor=default;labelBorderColor=none;" vertex="1" parent="1">
                    <mxGeometry x="337.5" y="3042" width="60" height="20" as="geometry"/>
                </mxCell>
                <mxCell id="207" value="权限认证" style="text;html=1;strokeColor=none;fillColor=none;align=center;verticalAlign=middle;whiteSpace=wrap;rounded=0;labelBackgroundColor=none;fontColor=default;labelBorderColor=none;" vertex="1" parent="1">
                    <mxGeometry x="539" y="2980" width="60" height="20" as="geometry"/>
                </mxCell>
                <mxCell id="208" value="" style="endArrow=none;html=1;strokeWidth=2;endFill=0;startArrow=classic;startFill=1;labelBackgroundColor=none;fontColor=default;labelBorderColor=none;strokeColor=#999999;" edge="1" parent="1">
                    <mxGeometry width="50" height="50" relative="1" as="geometry">
                        <mxPoint x="310" y="3119" as="sourcePoint"/>
                        <mxPoint x="709" y="3119" as="targetPoint"/>
                    </mxGeometry>
                </mxCell>
                <mxCell id="209" value="属性选择集" style="edgeLabel;html=1;align=center;verticalAlign=middle;resizable=0;points=[];labelBackgroundColor=none;fontColor=default;labelBorderColor=none;" vertex="1" connectable="0" parent="208">
                    <mxGeometry x="0.1721" y="-1" relative="1" as="geometry">
                        <mxPoint x="-17" as="offset"/>
                    </mxGeometry>
                </mxCell>
                <mxCell id="210" value="" style="endArrow=none;html=1;strokeWidth=2;endFill=0;startArrow=classic;startFill=1;labelBackgroundColor=none;fontColor=default;labelBorderColor=none;strokeColor=#999999;" edge="1" parent="1">
                    <mxGeometry width="50" height="50" relative="1" as="geometry">
                        <mxPoint x="108.99999999999999" y="3010" as="sourcePoint"/>
                        <mxPoint x="509" y="3010" as="targetPoint"/>
                    </mxGeometry>
                </mxCell>
                <mxCell id="211" value="返回接入凭证" style="edgeLabel;html=1;align=center;verticalAlign=middle;resizable=0;points=[];labelBackgroundColor=none;fontColor=default;labelBorderColor=none;" vertex="1" connectable="0" parent="210">
                    <mxGeometry x="0.1721" y="-1" relative="1" as="geometry">
                        <mxPoint x="-17" as="offset"/>
                    </mxGeometry>
                </mxCell>
                <mxCell id="212" value="" style="curved=1;endArrow=classic;html=1;strokeWidth=2;dashed=1;dashPattern=1 1;labelBackgroundColor=none;fontColor=default;labelBorderColor=none;strokeColor=#999999;" edge="1" parent="1">
                    <mxGeometry width="50" height="50" relative="1" as="geometry">
                        <mxPoint x="709" y="3079" as="sourcePoint"/>
                        <mxPoint x="709" y="3119" as="targetPoint"/>
                        <Array as="points">
                            <mxPoint x="739" y="3079"/>
                            <mxPoint x="739" y="3119"/>
                        </Array>
                    </mxGeometry>
                </mxCell>
                <mxCell id="213" value="机构共享属性集" style="text;html=1;strokeColor=none;fillColor=none;align=center;verticalAlign=middle;whiteSpace=wrap;rounded=0;labelBackgroundColor=none;fontColor=default;labelBorderColor=none;" vertex="1" parent="1">
                    <mxGeometry x="739" y="3089" width="60" height="20" as="geometry"/>
                </mxCell>
                <mxCell id="214" value="操作存证" style="text;html=1;strokeColor=none;fillColor=none;align=center;verticalAlign=middle;whiteSpace=wrap;rounded=0;labelBackgroundColor=none;fontColor=default;labelBorderColor=none;" vertex="1" parent="1">
                    <mxGeometry x="539" y="3280" width="60" height="20" as="geometry"/>
                </mxCell>
                <mxCell id="215" value="" style="endArrow=none;html=1;strokeWidth=2;endFill=0;startArrow=classic;startFill=1;labelBackgroundColor=none;fontColor=default;labelBorderColor=none;strokeColor=#999999;" edge="1" parent="1">
                    <mxGeometry width="50" height="50" relative="1" as="geometry">
                        <mxPoint x="108.99999999999999" y="3310" as="sourcePoint"/>
                        <mxPoint x="509" y="3310" as="targetPoint"/>
                    </mxGeometry>
                </mxCell>
                <mxCell id="216" value="审计结果返回" style="edgeLabel;html=1;align=center;verticalAlign=middle;resizable=0;points=[];labelBackgroundColor=none;fontColor=default;labelBorderColor=none;" vertex="1" connectable="0" parent="215">
                    <mxGeometry x="0.1721" y="-1" relative="1" as="geometry">
                        <mxPoint x="-17" as="offset"/>
                    </mxGeometry>
                </mxCell>
                <mxCell id="217" value="" style="curved=1;endArrow=classic;html=1;strokeWidth=2;dashed=1;dashPattern=1 1;labelBackgroundColor=none;fontColor=default;labelBorderColor=none;strokeColor=#999999;" edge="1" parent="1">
                    <mxGeometry width="50" height="50" relative="1" as="geometry">
                        <mxPoint x="310" y="3220" as="sourcePoint"/>
                        <mxPoint x="310" y="3260" as="targetPoint"/>
                        <Array as="points">
                            <mxPoint x="340" y="3220"/>
                            <mxPoint x="340" y="3260"/>
                        </Array>
                    </mxGeometry>
                </mxCell>
                <mxCell id="218" value="数据关联交叉验证" style="text;html=1;strokeColor=none;fillColor=none;align=center;verticalAlign=middle;whiteSpace=wrap;rounded=0;labelBackgroundColor=none;fontColor=default;labelBorderColor=none;" vertex="1" parent="1">
                    <mxGeometry x="340" y="3230" width="60" height="20" as="geometry"/>
                </mxCell>
                <mxCell id="221" value="3" style="whiteSpace=wrap;html=1;shape=partialRectangle;top=0;left=0;bottom=1;right=0;points=[[0,1],[1,1]];fillColor=none;align=center;verticalAlign=bottom;routingCenterY=0.5;snapToPoint=1;recursiveResize=0;autosize=1;treeFolding=1;treeMoving=1;newEdgeStyle={&quot;edgeStyle&quot;:&quot;entityRelationEdgeStyle&quot;,&quot;startArrow&quot;:&quot;none&quot;,&quot;endArrow&quot;:&quot;none&quot;,&quot;segment&quot;:10,&quot;curved&quot;:1};strokeColor=default;strokeWidth=1;fontColor=default;labelBorderColor=none;labelBackgroundColor=none;" vertex="1" parent="1">
                    <mxGeometry x="364.26" y="2850" width="40" height="20" as="geometry"/>
                </mxCell>
                <mxCell id="222" value="" style="edgeStyle=entityRelationEdgeStyle;startArrow=none;endArrow=none;segment=10;curved=1;rounded=0;sketch=0;strokeColor=default;strokeWidth=1;jumpStyle=none;fontColor=default;labelBorderColor=none;labelBackgroundColor=none;" edge="1" parent="1" target="221">
                    <mxGeometry relative="1" as="geometry">
                        <mxPoint x="304.2600000000002" y="2890" as="sourcePoint"/>
                    </mxGeometry>
                </mxCell>
                <mxCell id="223" value="4" style="whiteSpace=wrap;html=1;shape=partialRectangle;top=0;left=0;bottom=1;right=0;points=[[0,1],[1,1]];fillColor=none;align=center;verticalAlign=bottom;routingCenterY=0.5;snapToPoint=1;recursiveResize=0;autosize=1;treeFolding=1;treeMoving=1;newEdgeStyle={&quot;edgeStyle&quot;:&quot;entityRelationEdgeStyle&quot;,&quot;startArrow&quot;:&quot;none&quot;,&quot;endArrow&quot;:&quot;none&quot;,&quot;segment&quot;:10,&quot;curved&quot;:1};strokeColor=default;strokeWidth=1;fontColor=default;labelBorderColor=none;labelBackgroundColor=none;" vertex="1" parent="1">
                    <mxGeometry x="563.26" y="2850" width="40" height="20" as="geometry"/>
                </mxCell>
                <mxCell id="224" value="" style="edgeStyle=entityRelationEdgeStyle;startArrow=none;endArrow=none;segment=10;curved=1;rounded=0;sketch=0;strokeColor=default;strokeWidth=1;jumpStyle=none;fontColor=default;labelBorderColor=none;labelBackgroundColor=none;" edge="1" parent="1" target="223">
                    <mxGeometry relative="1" as="geometry">
                        <mxPoint x="503.26" y="2890" as="sourcePoint"/>
                    </mxGeometry>
                </mxCell>
                <mxCell id="225" value="5" style="whiteSpace=wrap;html=1;shape=partialRectangle;top=0;left=0;bottom=1;right=0;points=[[0,1],[1,1]];fillColor=none;align=center;verticalAlign=bottom;routingCenterY=0.5;snapToPoint=1;recursiveResize=0;autosize=1;treeFolding=1;treeMoving=1;newEdgeStyle={&quot;edgeStyle&quot;:&quot;entityRelationEdgeStyle&quot;,&quot;startArrow&quot;:&quot;none&quot;,&quot;endArrow&quot;:&quot;none&quot;,&quot;segment&quot;:10,&quot;curved&quot;:1};strokeColor=default;strokeWidth=1;fontColor=default;labelBorderColor=none;labelBackgroundColor=none;" vertex="1" parent="1">
                    <mxGeometry x="759" y="2850" width="40" height="20" as="geometry"/>
                </mxCell>
                <mxCell id="226" value="" style="edgeStyle=entityRelationEdgeStyle;startArrow=none;endArrow=none;segment=10;curved=1;rounded=0;sketch=0;strokeColor=default;strokeWidth=1;jumpStyle=none;fontColor=default;labelBorderColor=none;labelBackgroundColor=none;" edge="1" parent="1" target="225">
                    <mxGeometry relative="1" as="geometry">
                        <mxPoint x="699" y="2890" as="sourcePoint"/>
                    </mxGeometry>
                </mxCell>
                <mxCell id="227" value="1" style="whiteSpace=wrap;html=1;shape=partialRectangle;top=0;left=0;bottom=1;right=0;points=[[0,1],[1,1]];fillColor=none;align=center;verticalAlign=bottom;routingCenterY=0.5;snapToPoint=1;recursiveResize=0;autosize=1;treeFolding=1;treeMoving=1;newEdgeStyle={&quot;edgeStyle&quot;:&quot;entityRelationEdgeStyle&quot;,&quot;startArrow&quot;:&quot;none&quot;,&quot;endArrow&quot;:&quot;none&quot;,&quot;segment&quot;:10,&quot;curved&quot;:1};strokeColor=default;strokeWidth=1;fontColor=default;labelBorderColor=none;labelBackgroundColor=none;" vertex="1" parent="1">
                    <mxGeometry x="161.26" y="2850" width="40" height="20" as="geometry"/>
                </mxCell>
                <mxCell id="228" value="" style="edgeStyle=entityRelationEdgeStyle;startArrow=none;endArrow=none;segment=10;curved=1;rounded=0;sketch=0;strokeColor=default;strokeWidth=1;jumpStyle=none;fontColor=default;labelBorderColor=none;labelBackgroundColor=none;" edge="1" parent="1" target="227">
                    <mxGeometry relative="1" as="geometry">
                        <mxPoint x="101.25999999999998" y="2890" as="sourcePoint"/>
                    </mxGeometry>
                </mxCell>
                <mxCell id="230" style="edgeStyle=orthogonalEdgeStyle;rounded=0;sketch=0;jumpStyle=none;orthogonalLoop=1;jettySize=auto;html=1;exitX=0.75;exitY=1;exitDx=0;exitDy=0;entryX=0.75;entryY=0;entryDx=0;entryDy=0;startArrow=none;startFill=0;endArrow=classic;endFill=1;strokeColor=default;strokeWidth=1;" edge="1" parent="1">
                    <mxGeometry relative="1" as="geometry">
                        <mxPoint x="216.73750687591004" y="1223" as="sourcePoint"/>
                        <mxPoint x="216.73750687591004" y="1253" as="targetPoint"/>
                    </mxGeometry>
                </mxCell>
                <mxCell id="231" style="edgeStyle=orthogonalEdgeStyle;rounded=0;sketch=0;jumpStyle=none;orthogonalLoop=1;jettySize=auto;html=1;exitX=0.75;exitY=0;exitDx=0;exitDy=0;startArrow=classic;startFill=1;endArrow=none;endFill=0;strokeColor=default;strokeWidth=1;" edge="1" parent="1">
                    <mxGeometry relative="1" as="geometry">
                        <mxPoint x="216.6127586206898" y="1153" as="targetPoint"/>
                        <mxPoint x="216.73750687591004" y="1183" as="sourcePoint"/>
                    </mxGeometry>
                </mxCell>
                <mxCell id="234" value="交易请求装置" style="rounded=0;whiteSpace=wrap;html=1;strokeColor=default;fontStyle=1" vertex="1" parent="1">
                    <mxGeometry x="120.30000000000001" y="1183" width="194.14334250121337" height="40" as="geometry"/>
                </mxCell>
                <mxCell id="235" style="edgeStyle=orthogonalEdgeStyle;rounded=0;sketch=0;jumpStyle=none;orthogonalLoop=1;jettySize=auto;html=1;exitX=0.75;exitY=1;exitDx=0;exitDy=0;entryX=0.75;entryY=0;entryDx=0;entryDy=0;startArrow=none;startFill=0;endArrow=classic;endFill=1;strokeColor=default;strokeWidth=1;" edge="1" parent="1">
                    <mxGeometry relative="1" as="geometry">
                        <mxPoint x="216.73750687591004" y="1293" as="sourcePoint"/>
                        <mxPoint x="216.7384419996766" y="1323" as="targetPoint"/>
                    </mxGeometry>
                </mxCell>
                <mxCell id="237" value="证书管理装置" style="rounded=0;whiteSpace=wrap;html=1;strokeColor=default;fontStyle=1" vertex="1" parent="1">
                    <mxGeometry x="120.30000000000001" y="1253" width="194.14334250121337" height="40" as="geometry"/>
                </mxCell>
                <mxCell id="238" style="edgeStyle=orthogonalEdgeStyle;rounded=0;sketch=0;jumpStyle=none;orthogonalLoop=1;jettySize=auto;html=1;exitX=0.75;exitY=1;exitDx=0;exitDy=0;entryX=0.75;entryY=0;entryDx=0;entryDy=0;startArrow=none;startFill=0;endArrow=classic;endFill=1;strokeColor=default;strokeWidth=1;" edge="1" parent="1">
                    <mxGeometry relative="1" as="geometry">
                        <mxPoint x="216.7384419996766" y="1363" as="sourcePoint"/>
                        <mxPoint x="216.73416437469663" y="1393" as="targetPoint"/>
                    </mxGeometry>
                </mxCell>
                <mxCell id="240" value="共识记账装置" style="rounded=0;whiteSpace=wrap;html=1;strokeColor=default;fontStyle=1" vertex="1" parent="1">
                    <mxGeometry x="120.30093512376641" y="1323" width="194.14334250121337" height="40" as="geometry"/>
                </mxCell>
                <mxCell id="241" style="edgeStyle=orthogonalEdgeStyle;rounded=0;sketch=0;jumpStyle=none;orthogonalLoop=1;jettySize=auto;html=1;exitX=0.75;exitY=1;exitDx=0;exitDy=0;startArrow=none;startFill=0;endArrow=classic;endFill=1;strokeColor=default;strokeWidth=1;" edge="1" parent="1">
                    <mxGeometry relative="1" as="geometry">
                        <mxPoint x="216.6127586206898" y="1463" as="targetPoint"/>
                        <mxPoint x="216.73416437469663" y="1433" as="sourcePoint"/>
                    </mxGeometry>
                </mxCell>
                <mxCell id="243" value="数据存储装置" style="rounded=0;whiteSpace=wrap;html=1;strokeColor=default;fontStyle=1" vertex="1" parent="1">
                    <mxGeometry x="120.2966574987866" y="1393" width="194.14334250121337" height="40" as="geometry"/>
                </mxCell>
                <mxCell id="244" value="3" style="whiteSpace=wrap;html=1;shape=partialRectangle;top=0;left=0;bottom=1;right=0;points=[[0,1],[1,1]];fillColor=none;align=center;verticalAlign=bottom;routingCenterY=0.5;snapToPoint=1;recursiveResize=0;autosize=1;treeFolding=1;treeMoving=1;newEdgeStyle={&quot;edgeStyle&quot;:&quot;entityRelationEdgeStyle&quot;,&quot;startArrow&quot;:&quot;none&quot;,&quot;endArrow&quot;:&quot;none&quot;,&quot;segment&quot;:10,&quot;curved&quot;:1};strokeColor=default;strokeWidth=1;" vertex="1" parent="1">
                    <mxGeometry x="438.76" y="1060" width="40" height="20" as="geometry"/>
                </mxCell>
                <mxCell id="245" value="" style="edgeStyle=entityRelationEdgeStyle;startArrow=none;endArrow=none;segment=10;curved=1;rounded=0;sketch=0;strokeColor=default;strokeWidth=1;jumpStyle=none;" edge="1" parent="1" target="244">
                    <mxGeometry relative="1" as="geometry">
                        <mxPoint x="377.26" y="1100" as="sourcePoint"/>
                    </mxGeometry>
                </mxCell>
                <mxCell id="246" value="区块链网络" style="rounded=0;whiteSpace=wrap;html=1;strokeColor=default;fontStyle=1" vertex="1" parent="1">
                    <mxGeometry x="80" y="1463" width="630" height="40" as="geometry"/>
                </mxCell>
                <mxCell id="248" value="共识记账" style="text;html=1;resizable=0;autosize=1;align=center;verticalAlign=middle;points=[];fillColor=none;strokeColor=none;rounded=0;" vertex="1" parent="1">
                    <mxGeometry x="218.63000000000002" y="1300" width="60" height="20" as="geometry"/>
                </mxCell>
                <mxCell id="249" value="可信存证" style="text;html=1;resizable=0;autosize=1;align=center;verticalAlign=middle;points=[];fillColor=none;strokeColor=none;rounded=0;" vertex="1" parent="1">
                    <mxGeometry x="214.13000000000002" y="1366" width="60" height="20" as="geometry"/>
                </mxCell>
                <mxCell id="250" value="写入" style="text;html=1;resizable=0;autosize=1;align=center;verticalAlign=middle;points=[];fillColor=none;strokeColor=none;rounded=0;" vertex="1" parent="1">
                    <mxGeometry x="224.13000000000002" y="1437" width="40" height="20" as="geometry"/>
                </mxCell>
                <mxCell id="253" value="安全加密" style="text;html=1;resizable=0;autosize=1;align=center;verticalAlign=middle;points=[];fillColor=none;strokeColor=none;rounded=0;" vertex="1" parent="1">
                    <mxGeometry x="213.57000000000002" y="1228" width="60" height="20" as="geometry"/>
                </mxCell>
                <mxCell id="255" value="数据输入" style="text;html=1;resizable=0;autosize=1;align=center;verticalAlign=middle;points=[];fillColor=none;strokeColor=none;rounded=0;" vertex="1" parent="1">
                    <mxGeometry x="218.13000000000002" y="1159" width="60" height="20" as="geometry"/>
                </mxCell>
                <mxCell id="257" value="31" style="whiteSpace=wrap;html=1;shape=partialRectangle;top=0;left=0;bottom=1;right=0;points=[[0,1],[1,1]];fillColor=none;align=center;verticalAlign=bottom;routingCenterY=0.5;snapToPoint=1;recursiveResize=0;autosize=1;treeFolding=1;treeMoving=1;newEdgeStyle={&quot;edgeStyle&quot;:&quot;entityRelationEdgeStyle&quot;,&quot;startArrow&quot;:&quot;none&quot;,&quot;endArrow&quot;:&quot;none&quot;,&quot;segment&quot;:10,&quot;curved&quot;:1};strokeColor=default;strokeWidth=1;" vertex="1" parent="1">
                    <mxGeometry x="354.05" y="1160" width="50" height="20" as="geometry"/>
                </mxCell>
                <mxCell id="258" value="" style="edgeStyle=entityRelationEdgeStyle;startArrow=none;endArrow=none;segment=10;curved=1;rounded=0;sketch=0;strokeColor=default;strokeWidth=1;jumpStyle=none;" edge="1" parent="1" target="257">
                    <mxGeometry relative="1" as="geometry">
                        <mxPoint x="297.55" y="1200" as="sourcePoint"/>
                    </mxGeometry>
                </mxCell>
                <mxCell id="261" value="32" style="whiteSpace=wrap;html=1;shape=partialRectangle;top=0;left=0;bottom=1;right=0;points=[[0,1],[1,1]];fillColor=none;align=center;verticalAlign=bottom;routingCenterY=0.5;snapToPoint=1;recursiveResize=0;autosize=1;treeFolding=1;treeMoving=1;newEdgeStyle={&quot;edgeStyle&quot;:&quot;entityRelationEdgeStyle&quot;,&quot;startArrow&quot;:&quot;none&quot;,&quot;endArrow&quot;:&quot;none&quot;,&quot;segment&quot;:10,&quot;curved&quot;:1};strokeColor=default;strokeWidth=1;" vertex="1" parent="1">
                    <mxGeometry x="358.44" y="1230" width="50" height="20" as="geometry"/>
                </mxCell>
                <mxCell id="262" value="" style="edgeStyle=entityRelationEdgeStyle;startArrow=none;endArrow=none;segment=10;curved=1;rounded=0;sketch=0;strokeColor=default;strokeWidth=1;jumpStyle=none;" edge="1" parent="1" target="261">
                    <mxGeometry relative="1" as="geometry">
                        <mxPoint x="301.9399999999999" y="1270" as="sourcePoint"/>
                    </mxGeometry>
                </mxCell>
                <mxCell id="263" value="33" style="whiteSpace=wrap;html=1;shape=partialRectangle;top=0;left=0;bottom=1;right=0;points=[[0,1],[1,1]];fillColor=none;align=center;verticalAlign=bottom;routingCenterY=0.5;snapToPoint=1;recursiveResize=0;autosize=1;treeFolding=1;treeMoving=1;newEdgeStyle={&quot;edgeStyle&quot;:&quot;entityRelationEdgeStyle&quot;,&quot;startArrow&quot;:&quot;none&quot;,&quot;endArrow&quot;:&quot;none&quot;,&quot;segment&quot;:10,&quot;curved&quot;:1};strokeColor=default;strokeWidth=1;" vertex="1" parent="1">
                    <mxGeometry x="358.44" y="1311" width="50" height="20" as="geometry"/>
                </mxCell>
                <mxCell id="264" value="" style="edgeStyle=entityRelationEdgeStyle;startArrow=none;endArrow=none;segment=10;curved=1;rounded=0;sketch=0;strokeColor=default;strokeWidth=1;jumpStyle=none;" edge="1" parent="1" target="263">
                    <mxGeometry relative="1" as="geometry">
                        <mxPoint x="301.9399999999999" y="1351" as="sourcePoint"/>
                    </mxGeometry>
                </mxCell>
                <mxCell id="265" value="34" style="whiteSpace=wrap;html=1;shape=partialRectangle;top=0;left=0;bottom=1;right=0;points=[[0,1],[1,1]];fillColor=none;align=center;verticalAlign=bottom;routingCenterY=0.5;snapToPoint=1;recursiveResize=0;autosize=1;treeFolding=1;treeMoving=1;newEdgeStyle={&quot;edgeStyle&quot;:&quot;entityRelationEdgeStyle&quot;,&quot;startArrow&quot;:&quot;none&quot;,&quot;endArrow&quot;:&quot;none&quot;,&quot;segment&quot;:10,&quot;curved&quot;:1};strokeColor=default;strokeWidth=1;" vertex="1" parent="1">
                    <mxGeometry x="356.31" y="1381" width="50" height="20" as="geometry"/>
                </mxCell>
                <mxCell id="266" value="" style="edgeStyle=entityRelationEdgeStyle;startArrow=none;endArrow=none;segment=10;curved=1;rounded=0;sketch=0;strokeColor=default;strokeWidth=1;jumpStyle=none;" edge="1" parent="1" target="265">
                    <mxGeometry relative="1" as="geometry">
                        <mxPoint x="299.8099999999998" y="1421" as="sourcePoint"/>
                    </mxGeometry>
                </mxCell>
                <mxCell id="271" value="区块链&lt;br&gt;节点2" style="rounded=1;whiteSpace=wrap;html=1;dashed=1;" vertex="1" parent="1">
                    <mxGeometry x="420" y="1131.5" width="100" height="317" as="geometry"/>
                </mxCell>
                <mxCell id="272" value="区块链&lt;br&gt;节点n" style="rounded=1;whiteSpace=wrap;html=1;dashed=1;" vertex="1" parent="1">
                    <mxGeometry x="603.26" y="1131.5" width="100" height="317" as="geometry"/>
                </mxCell>
                <mxCell id="273" value="" style="shape=filledEdge;rounded=0;fixDash=1;endArrow=none;strokeWidth=10;fillColor=#ffffff;edgeStyle=orthogonalEdgeStyle;dashed=1;" edge="1" parent="1">
                    <mxGeometry width="60" height="40" relative="1" as="geometry">
                        <mxPoint x="527.89" y="1293" as="sourcePoint"/>
                        <mxPoint x="598" y="1293" as="targetPoint"/>
                    </mxGeometry>
                </mxCell>
                <mxCell id="274" value="" style="rounded=0;whiteSpace=wrap;html=1;strokeColor=default;" vertex="1" parent="1">
                    <mxGeometry x="35" y="1630" width="755" height="490" as="geometry"/>
                </mxCell>
                <mxCell id="285" value="4" style="whiteSpace=wrap;html=1;shape=partialRectangle;top=0;left=0;bottom=1;right=0;points=[[0,1],[1,1]];fillColor=none;align=center;verticalAlign=bottom;routingCenterY=0.5;snapToPoint=1;recursiveResize=0;autosize=1;treeFolding=1;treeMoving=1;newEdgeStyle={&quot;edgeStyle&quot;:&quot;entityRelationEdgeStyle&quot;,&quot;startArrow&quot;:&quot;none&quot;,&quot;endArrow&quot;:&quot;none&quot;,&quot;segment&quot;:10,&quot;curved&quot;:1};strokeColor=default;strokeWidth=1;" vertex="1" parent="1">
                    <mxGeometry x="433.76" y="1630" width="40" height="20" as="geometry"/>
                </mxCell>
                <mxCell id="286" value="" style="edgeStyle=entityRelationEdgeStyle;startArrow=none;endArrow=none;segment=10;curved=1;rounded=0;sketch=0;strokeColor=default;strokeWidth=1;jumpStyle=none;" edge="1" parent="1" target="285">
                    <mxGeometry relative="1" as="geometry">
                        <mxPoint x="372.26" y="1670" as="sourcePoint"/>
                    </mxGeometry>
                </mxCell>
                <mxCell id="321" style="edgeStyle=none;html=1;exitX=0.5;exitY=1;exitDx=0;exitDy=0;entryX=0.5;entryY=0;entryDx=0;entryDy=0;dashed=1;" edge="1" parent="1" source="304" target="306">
                    <mxGeometry relative="1" as="geometry"/>
                </mxCell>
                <mxCell id="322" style="edgeStyle=none;html=1;exitX=0.5;exitY=1;exitDx=0;exitDy=0;entryX=0.5;entryY=0;entryDx=0;entryDy=0;dashed=1;" edge="1" parent="1" source="304" target="311">
                    <mxGeometry relative="1" as="geometry"/>
                </mxCell>
                <mxCell id="323" style="edgeStyle=none;html=1;entryX=0.5;entryY=0;entryDx=0;entryDy=0;dashed=1;" edge="1" parent="1" target="316">
                    <mxGeometry relative="1" as="geometry">
                        <mxPoint x="374.7" y="1760" as="sourcePoint"/>
                    </mxGeometry>
                </mxCell>
                <mxCell id="304" value="处理请求收发装置" style="rounded=0;whiteSpace=wrap;html=1;strokeColor=default;fontStyle=1" vertex="1" parent="1">
                    <mxGeometry x="277.83" y="1720" width="194.14334250121337" height="40" as="geometry"/>
                </mxCell>
                <mxCell id="305" value="审计节点" style="text;html=1;resizable=0;autosize=1;align=center;verticalAlign=middle;points=[];fillColor=none;strokeColor=none;rounded=0;" vertex="1" parent="1">
                    <mxGeometry x="347.96" y="1680" width="60" height="20" as="geometry"/>
                </mxCell>
                <mxCell id="306" value="" style="rounded=1;whiteSpace=wrap;html=1;dashed=1;" vertex="1" parent="1">
                    <mxGeometry x="44.49000000000001" y="1829" width="171" height="281" as="geometry"/>
                </mxCell>
                <mxCell id="307" value="规则装载模块" style="rounded=0;whiteSpace=wrap;html=1;strokeColor=default;fontStyle=1" vertex="1" parent="1">
                    <mxGeometry x="67.64" y="1894" width="124.7" height="40" as="geometry"/>
                </mxCell>
                <mxCell id="308" value="审计规则处理装置" style="text;html=1;resizable=0;autosize=1;align=center;verticalAlign=middle;points=[];fillColor=none;strokeColor=none;rounded=0;" vertex="1" parent="1">
                    <mxGeometry x="76.46999999999998" y="1854" width="110" height="20" as="geometry"/>
                </mxCell>
                <mxCell id="309" value="规则查询模块" style="rounded=0;whiteSpace=wrap;html=1;strokeColor=default;fontStyle=1" vertex="1" parent="1">
                    <mxGeometry x="67.64" y="1944" width="124.14" height="40" as="geometry"/>
                </mxCell>
                <mxCell id="310" value="规则更新模块" style="rounded=0;whiteSpace=wrap;html=1;strokeColor=default;fontStyle=1" vertex="1" parent="1">
                    <mxGeometry x="67.64" y="1994" width="124.14" height="40" as="geometry"/>
                </mxCell>
                <mxCell id="311" value="" style="rounded=1;whiteSpace=wrap;html=1;dashed=1;" vertex="1" parent="1">
                    <mxGeometry x="289.25" y="1829" width="171" height="281" as="geometry"/>
                </mxCell>
                <mxCell id="312" value="权限认证模块" style="rounded=0;whiteSpace=wrap;html=1;strokeColor=default;fontStyle=1" vertex="1" parent="1">
                    <mxGeometry x="312.4" y="1894" width="124.7" height="40" as="geometry"/>
                </mxCell>
                <mxCell id="313" value="全加密安全处理装置" style="text;html=1;resizable=0;autosize=1;align=center;verticalAlign=middle;points=[];fillColor=none;strokeColor=none;rounded=0;" vertex="1" parent="1">
                    <mxGeometry x="316.23" y="1854" width="120" height="20" as="geometry"/>
                </mxCell>
                <mxCell id="314" value="属性加密模块" style="rounded=0;whiteSpace=wrap;html=1;strokeColor=default;fontStyle=1" vertex="1" parent="1">
                    <mxGeometry x="312.4" y="1944" width="124.14" height="40" as="geometry"/>
                </mxCell>
                <mxCell id="315" value="关联验证模块" style="rounded=0;whiteSpace=wrap;html=1;strokeColor=default;fontStyle=1" vertex="1" parent="1">
                    <mxGeometry x="312.4" y="1994" width="124.14" height="40" as="geometry"/>
                </mxCell>
                <mxCell id="316" value="" style="rounded=1;whiteSpace=wrap;html=1;dashed=1;" vertex="1" parent="1">
                    <mxGeometry x="523.2" y="1829" width="171" height="281" as="geometry"/>
                </mxCell>
                <mxCell id="317" value="区块链点调用模块" style="rounded=0;whiteSpace=wrap;html=1;strokeColor=default;fontStyle=1" vertex="1" parent="1">
                    <mxGeometry x="546.35" y="1894" width="124.7" height="40" as="geometry"/>
                </mxCell>
                <mxCell id="318" value="区块链处理模块" style="text;html=1;resizable=0;autosize=1;align=center;verticalAlign=middle;points=[];fillColor=none;strokeColor=none;rounded=0;" vertex="1" parent="1">
                    <mxGeometry x="560.1800000000001" y="1854" width="100" height="20" as="geometry"/>
                </mxCell>
                <mxCell id="319" value="智能合约调用模块" style="rounded=0;whiteSpace=wrap;html=1;strokeColor=default;fontStyle=1" vertex="1" parent="1">
                    <mxGeometry x="546.35" y="1944" width="124.14" height="40" as="geometry"/>
                </mxCell>
                <mxCell id="320" value="属性策略存取模块" style="rounded=0;whiteSpace=wrap;html=1;strokeColor=default;fontStyle=1" vertex="1" parent="1">
                    <mxGeometry x="546.35" y="1994" width="124.14" height="40" as="geometry"/>
                </mxCell>
                <mxCell id="335" value="5" style="whiteSpace=wrap;html=1;shape=partialRectangle;top=0;left=0;bottom=1;right=0;points=[[0,1],[1,1]];fillColor=none;align=center;verticalAlign=bottom;routingCenterY=0.5;snapToPoint=1;recursiveResize=0;autosize=1;treeFolding=1;treeMoving=1;newEdgeStyle={&quot;edgeStyle&quot;:&quot;entityRelationEdgeStyle&quot;,&quot;startArrow&quot;:&quot;none&quot;,&quot;endArrow&quot;:&quot;none&quot;,&quot;segment&quot;:10,&quot;curved&quot;:1};strokeColor=default;strokeWidth=1;" vertex="1" parent="1">
                    <mxGeometry x="437.76" y="2157" width="40" height="20" as="geometry"/>
                </mxCell>
                <mxCell id="336" value="" style="edgeStyle=entityRelationEdgeStyle;startArrow=none;endArrow=none;segment=10;curved=1;rounded=0;sketch=0;strokeColor=default;strokeWidth=1;jumpStyle=none;" edge="1" parent="1" target="335">
                    <mxGeometry relative="1" as="geometry">
                        <mxPoint x="376.26" y="2197" as="sourcePoint"/>
                    </mxGeometry>
                </mxCell>
                <mxCell id="337" value="区块链网络" style="rounded=0;whiteSpace=wrap;html=1;strokeColor=default;fontStyle=1" vertex="1" parent="1">
                    <mxGeometry x="74" y="2543" width="657.43" height="40" as="geometry"/>
                </mxCell>
                <mxCell id="352" value="" style="rounded=1;whiteSpace=wrap;html=1;dashed=1;" vertex="1" parent="1">
                    <mxGeometry x="236.54999999999998" y="2320" width="146.43" height="208.5" as="geometry"/>
                </mxCell>
                <mxCell id="388" style="edgeStyle=none;html=1;exitX=0;exitY=0.5;exitDx=0;exitDy=0;dashed=1;" edge="1" parent="1" source="354" target="379">
                    <mxGeometry relative="1" as="geometry"/>
                </mxCell>
                <mxCell id="354" value="业务智能合约1" style="rounded=0;whiteSpace=wrap;html=1;strokeColor=default;fontStyle=1" vertex="1" parent="1">
                    <mxGeometry x="248.27999999999997" y="2360" width="124.7" height="40" as="geometry"/>
                </mxCell>
                <mxCell id="387" style="edgeStyle=none;html=1;exitX=0;exitY=0.5;exitDx=0;exitDy=0;entryX=1;entryY=0.5;entryDx=0;entryDy=0;dashed=1;" edge="1" parent="1" source="355" target="381">
                    <mxGeometry relative="1" as="geometry"/>
                </mxCell>
                <mxCell id="355" value="业务智能合约2" style="rounded=0;whiteSpace=wrap;html=1;strokeColor=default;fontStyle=1" vertex="1" parent="1">
                    <mxGeometry x="248.27999999999997" y="2410" width="124.14" height="40" as="geometry"/>
                </mxCell>
                <mxCell id="391" style="edgeStyle=none;html=1;exitX=0;exitY=0.5;exitDx=0;exitDy=0;entryX=1;entryY=0.5;entryDx=0;entryDy=0;dashed=1;" edge="1" parent="1" source="356" target="380">
                    <mxGeometry relative="1" as="geometry"/>
                </mxCell>
                <mxCell id="356" value="系统审计合约" style="rounded=0;whiteSpace=wrap;html=1;strokeColor=default;fontStyle=1" vertex="1" parent="1">
                    <mxGeometry x="248.27999999999997" y="2460" width="124.14" height="40" as="geometry"/>
                </mxCell>
                <mxCell id="357" value="A机构审计节点" style="rounded=1;whiteSpace=wrap;html=1;dashed=1;" vertex="1" parent="1">
                    <mxGeometry x="234" y="2260" width="328.98" height="50" as="geometry"/>
                </mxCell>
                <mxCell id="358" value="" style="rounded=1;whiteSpace=wrap;html=1;dashed=1;" vertex="1" parent="1">
                    <mxGeometry x="412.26" y="2320" width="146.43" height="208.5" as="geometry"/>
                </mxCell>
                <mxCell id="386" style="edgeStyle=none;html=1;exitX=0;exitY=0.5;exitDx=0;exitDy=0;entryX=1;entryY=0.5;entryDx=0;entryDy=0;dashed=1;" edge="1" parent="1" source="359" target="355">
                    <mxGeometry relative="1" as="geometry"/>
                </mxCell>
                <mxCell id="359" value="业务智能合约1" style="rounded=0;whiteSpace=wrap;html=1;strokeColor=default;fontStyle=1" vertex="1" parent="1">
                    <mxGeometry x="423.99" y="2360" width="124.7" height="40" as="geometry"/>
                </mxCell>
                <mxCell id="383" style="edgeStyle=none;html=1;exitX=0;exitY=0.5;exitDx=0;exitDy=0;entryX=1;entryY=0.5;entryDx=0;entryDy=0;dashed=1;" edge="1" parent="1" source="360" target="354">
                    <mxGeometry relative="1" as="geometry"/>
                </mxCell>
                <mxCell id="360" value="业务智能合约3" style="rounded=0;whiteSpace=wrap;html=1;strokeColor=default;fontStyle=1" vertex="1" parent="1">
                    <mxGeometry x="423.99" y="2410" width="124.14" height="40" as="geometry"/>
                </mxCell>
                <mxCell id="390" style="edgeStyle=none;html=1;exitX=0;exitY=0.5;exitDx=0;exitDy=0;dashed=1;" edge="1" parent="1" source="361" target="356">
                    <mxGeometry relative="1" as="geometry"/>
                </mxCell>
                <mxCell id="361" value="系统审计合约" style="rounded=0;whiteSpace=wrap;html=1;strokeColor=default;fontStyle=1" vertex="1" parent="1">
                    <mxGeometry x="423.99" y="2460" width="124.14" height="40" as="geometry"/>
                </mxCell>
                <mxCell id="362" value="业务通道1" style="text;html=1;resizable=0;autosize=1;align=center;verticalAlign=middle;points=[];fillColor=none;strokeColor=none;rounded=0;" vertex="1" parent="1">
                    <mxGeometry x="270.51" y="2330" width="70" height="20" as="geometry"/>
                </mxCell>
                <mxCell id="363" value="业务通道2" style="text;html=1;resizable=0;autosize=1;align=center;verticalAlign=middle;points=[];fillColor=none;strokeColor=none;rounded=0;" vertex="1" parent="1">
                    <mxGeometry x="454.48" y="2330" width="70" height="20" as="geometry"/>
                </mxCell>
                <mxCell id="364" value="" style="rounded=1;whiteSpace=wrap;html=1;dashed=1;" vertex="1" parent="1">
                    <mxGeometry x="580.9799999999999" y="2320" width="146.43" height="208.5" as="geometry"/>
                </mxCell>
                <mxCell id="382" style="edgeStyle=none;html=1;exitX=0;exitY=0.5;exitDx=0;exitDy=0;entryX=1;entryY=0.5;entryDx=0;entryDy=0;dashed=1;" edge="1" parent="1" source="365" target="361">
                    <mxGeometry relative="1" as="geometry"/>
                </mxCell>
                <mxCell id="365" value="业务智能合约1" style="rounded=0;whiteSpace=wrap;html=1;strokeColor=default;fontStyle=1" vertex="1" parent="1">
                    <mxGeometry x="592.7099999999999" y="2360" width="124.7" height="40" as="geometry"/>
                </mxCell>
                <mxCell id="385" style="edgeStyle=none;html=1;exitX=0;exitY=0.5;exitDx=0;exitDy=0;entryX=1;entryY=0.5;entryDx=0;entryDy=0;dashed=1;" edge="1" parent="1" source="366" target="359">
                    <mxGeometry relative="1" as="geometry"/>
                </mxCell>
                <mxCell id="366" value="业务智能合约2" style="rounded=0;whiteSpace=wrap;html=1;strokeColor=default;fontStyle=1" vertex="1" parent="1">
                    <mxGeometry x="592.7099999999999" y="2410" width="124.14" height="40" as="geometry"/>
                </mxCell>
                <mxCell id="389" style="edgeStyle=none;html=1;exitX=0;exitY=0.5;exitDx=0;exitDy=0;entryX=1;entryY=0.5;entryDx=0;entryDy=0;dashed=1;" edge="1" parent="1" source="367" target="360">
                    <mxGeometry relative="1" as="geometry"/>
                </mxCell>
                <mxCell id="367" value="系统审计合约" style="rounded=0;whiteSpace=wrap;html=1;strokeColor=default;fontStyle=1" vertex="1" parent="1">
                    <mxGeometry x="592.7099999999999" y="2460" width="124.14" height="40" as="geometry"/>
                </mxCell>
                <mxCell id="368" value="业务通道1" style="text;html=1;resizable=0;autosize=1;align=center;verticalAlign=middle;points=[];fillColor=none;strokeColor=none;rounded=0;" vertex="1" parent="1">
                    <mxGeometry x="623.1999999999999" y="2330" width="70" height="20" as="geometry"/>
                </mxCell>
                <mxCell id="369" value="B机构审计节点" style="rounded=1;whiteSpace=wrap;html=1;dashed=1;" vertex="1" parent="1">
                    <mxGeometry x="582.3299999999999" y="2260" width="143.73" height="50" as="geometry"/>
                </mxCell>
                <mxCell id="372" value="联盟机构&lt;br&gt;共享属性集" style="text;html=1;resizable=0;autosize=1;align=center;verticalAlign=middle;points=[];fillColor=none;strokeColor=none;rounded=0;" vertex="1" parent="1">
                    <mxGeometry x="107.21" y="2285" width="80" height="30" as="geometry"/>
                </mxCell>
                <mxCell id="375" value="规则卸载模块" style="rounded=0;whiteSpace=wrap;html=1;strokeColor=default;fontStyle=1" vertex="1" parent="1">
                    <mxGeometry x="68.42999999999999" y="2050" width="124.14" height="40" as="geometry"/>
                </mxCell>
                <mxCell id="376" value="授权管理模块" style="rounded=0;whiteSpace=wrap;html=1;strokeColor=default;fontStyle=1" vertex="1" parent="1">
                    <mxGeometry x="312.4" y="2050" width="124.14" height="40" as="geometry"/>
                </mxCell>
                <mxCell id="377" value="数据批处理模块" style="rounded=0;whiteSpace=wrap;html=1;strokeColor=default;fontStyle=1" vertex="1" parent="1">
                    <mxGeometry x="547.11" y="2050" width="124.14" height="40" as="geometry"/>
                </mxCell>
                <mxCell id="378" value="审计智能合约" style="text;html=1;resizable=0;autosize=1;align=center;verticalAlign=middle;points=[];fillColor=none;strokeColor=none;rounded=0;" vertex="1" parent="1">
                    <mxGeometry x="333.26" y="2207" width="90" height="20" as="geometry"/>
                </mxCell>
                <mxCell id="379" value="属性选择集合A" style="rounded=0;whiteSpace=wrap;html=1;strokeColor=default;fontStyle=1" vertex="1" parent="1">
                    <mxGeometry x="85.42999999999998" y="2360" width="124.7" height="40" as="geometry"/>
                </mxCell>
                <mxCell id="380" value="属性选择集合B" style="rounded=0;whiteSpace=wrap;html=1;strokeColor=default;fontStyle=1" vertex="1" parent="1">
                    <mxGeometry x="86.42999999999998" y="2410" width="124.7" height="40" as="geometry"/>
                </mxCell>
                <mxCell id="381" value="属性选择集合C" style="rounded=0;whiteSpace=wrap;html=1;strokeColor=default;fontStyle=1" vertex="1" parent="1">
                    <mxGeometry x="87.42999999999998" y="2460" width="124.7" height="40" as="geometry"/>
                </mxCell>
                <mxCell id="392" value="421" style="whiteSpace=wrap;html=1;shape=partialRectangle;top=0;left=0;bottom=1;right=0;points=[[0,1],[1,1]];fillColor=none;align=center;verticalAlign=bottom;routingCenterY=0.5;snapToPoint=1;recursiveResize=0;autosize=1;treeFolding=1;treeMoving=1;newEdgeStyle={&quot;edgeStyle&quot;:&quot;entityRelationEdgeStyle&quot;,&quot;startArrow&quot;:&quot;none&quot;,&quot;endArrow&quot;:&quot;none&quot;,&quot;segment&quot;:10,&quot;curved&quot;:1};strokeColor=default;strokeWidth=1;" vertex="1" parent="1">
                    <mxGeometry x="224.12" y="1883.5" width="50" height="20" as="geometry"/>
                </mxCell>
                <mxCell id="393" value="" style="edgeStyle=entityRelationEdgeStyle;startArrow=none;endArrow=none;segment=10;curved=1;rounded=0;sketch=0;strokeColor=default;strokeWidth=1;jumpStyle=none;" edge="1" parent="1" target="392">
                    <mxGeometry relative="1" as="geometry">
                        <mxPoint x="167.61999999999995" y="1923.5" as="sourcePoint"/>
                    </mxGeometry>
                </mxCell>
                <mxCell id="394" value="422" style="whiteSpace=wrap;html=1;shape=partialRectangle;top=0;left=0;bottom=1;right=0;points=[[0,1],[1,1]];fillColor=none;align=center;verticalAlign=bottom;routingCenterY=0.5;snapToPoint=1;recursiveResize=0;autosize=1;treeFolding=1;treeMoving=1;newEdgeStyle={&quot;edgeStyle&quot;:&quot;entityRelationEdgeStyle&quot;,&quot;startArrow&quot;:&quot;none&quot;,&quot;endArrow&quot;:&quot;none&quot;,&quot;segment&quot;:10,&quot;curved&quot;:1};strokeColor=default;strokeWidth=1;" vertex="1" parent="1">
                    <mxGeometry x="228.51" y="1929" width="50" height="20" as="geometry"/>
                </mxCell>
                <mxCell id="395" value="" style="edgeStyle=entityRelationEdgeStyle;startArrow=none;endArrow=none;segment=10;curved=1;rounded=0;sketch=0;strokeColor=default;strokeWidth=1;jumpStyle=none;" edge="1" parent="1" target="394">
                    <mxGeometry relative="1" as="geometry">
                        <mxPoint x="172.00999999999982" y="1969" as="sourcePoint"/>
                    </mxGeometry>
                </mxCell>
                <mxCell id="396" value="423" style="whiteSpace=wrap;html=1;shape=partialRectangle;top=0;left=0;bottom=1;right=0;points=[[0,1],[1,1]];fillColor=none;align=center;verticalAlign=bottom;routingCenterY=0.5;snapToPoint=1;recursiveResize=0;autosize=1;treeFolding=1;treeMoving=1;newEdgeStyle={&quot;edgeStyle&quot;:&quot;entityRelationEdgeStyle&quot;,&quot;startArrow&quot;:&quot;none&quot;,&quot;endArrow&quot;:&quot;none&quot;,&quot;segment&quot;:10,&quot;curved&quot;:1};strokeColor=default;strokeWidth=1;" vertex="1" parent="1">
                    <mxGeometry x="228.51" y="1980" width="50" height="20" as="geometry"/>
                </mxCell>
                <mxCell id="397" value="" style="edgeStyle=entityRelationEdgeStyle;startArrow=none;endArrow=none;segment=10;curved=1;rounded=0;sketch=0;strokeColor=default;strokeWidth=1;jumpStyle=none;" edge="1" parent="1" target="396">
                    <mxGeometry relative="1" as="geometry">
                        <mxPoint x="172.00999999999982" y="2020" as="sourcePoint"/>
                    </mxGeometry>
                </mxCell>
                <mxCell id="398" value="424" style="whiteSpace=wrap;html=1;shape=partialRectangle;top=0;left=0;bottom=1;right=0;points=[[0,1],[1,1]];fillColor=none;align=center;verticalAlign=bottom;routingCenterY=0.5;snapToPoint=1;recursiveResize=0;autosize=1;treeFolding=1;treeMoving=1;newEdgeStyle={&quot;edgeStyle&quot;:&quot;entityRelationEdgeStyle&quot;,&quot;startArrow&quot;:&quot;none&quot;,&quot;endArrow&quot;:&quot;none&quot;,&quot;segment&quot;:10,&quot;curved&quot;:1};strokeColor=default;strokeWidth=1;" vertex="1" parent="1">
                    <mxGeometry x="224.12" y="2030" width="50" height="20" as="geometry"/>
                </mxCell>
                <mxCell id="399" value="" style="edgeStyle=entityRelationEdgeStyle;startArrow=none;endArrow=none;segment=10;curved=1;rounded=0;sketch=0;strokeColor=default;strokeWidth=1;jumpStyle=none;" edge="1" parent="1" target="398">
                    <mxGeometry relative="1" as="geometry">
                        <mxPoint x="167.61999999999972" y="2070" as="sourcePoint"/>
                    </mxGeometry>
                </mxCell>
                <mxCell id="400" value="41" style="whiteSpace=wrap;html=1;shape=partialRectangle;top=0;left=0;bottom=1;right=0;points=[[0,1],[1,1]];fillColor=none;align=center;verticalAlign=bottom;routingCenterY=0.5;snapToPoint=1;recursiveResize=0;autosize=1;treeFolding=1;treeMoving=1;newEdgeStyle={&quot;edgeStyle&quot;:&quot;entityRelationEdgeStyle&quot;,&quot;startArrow&quot;:&quot;none&quot;,&quot;endArrow&quot;:&quot;none&quot;,&quot;segment&quot;:10,&quot;curved&quot;:1};strokeColor=default;strokeWidth=1;" vertex="1" parent="1">
                    <mxGeometry x="496.35" y="1690" width="50" height="20" as="geometry"/>
                </mxCell>
                <mxCell id="401" value="" style="edgeStyle=entityRelationEdgeStyle;startArrow=none;endArrow=none;segment=10;curved=1;rounded=0;sketch=0;strokeColor=default;strokeWidth=1;jumpStyle=none;" edge="1" parent="1" target="400">
                    <mxGeometry relative="1" as="geometry">
                        <mxPoint x="439.8499999999997" y="1730" as="sourcePoint"/>
                    </mxGeometry>
                </mxCell>
                <mxCell id="402" value="42" style="whiteSpace=wrap;html=1;shape=partialRectangle;top=0;left=0;bottom=1;right=0;points=[[0,1],[1,1]];fillColor=none;align=center;verticalAlign=bottom;routingCenterY=0.5;snapToPoint=1;recursiveResize=0;autosize=1;treeFolding=1;treeMoving=1;newEdgeStyle={&quot;edgeStyle&quot;:&quot;entityRelationEdgeStyle&quot;,&quot;startArrow&quot;:&quot;none&quot;,&quot;endArrow&quot;:&quot;none&quot;,&quot;segment&quot;:10,&quot;curved&quot;:1};strokeColor=default;strokeWidth=1;" vertex="1" parent="1">
                    <mxGeometry x="152.00000000000006" y="1789" width="50" height="20" as="geometry"/>
                </mxCell>
                <mxCell id="403" value="" style="edgeStyle=entityRelationEdgeStyle;startArrow=none;endArrow=none;segment=10;curved=1;rounded=0;sketch=0;strokeColor=default;strokeWidth=1;jumpStyle=none;" edge="1" parent="1" target="402">
                    <mxGeometry relative="1" as="geometry">
                        <mxPoint x="95.4999999999997" y="1829" as="sourcePoint"/>
                    </mxGeometry>
                </mxCell>
                <mxCell id="405" value="43" style="whiteSpace=wrap;html=1;shape=partialRectangle;top=0;left=0;bottom=1;right=0;points=[[0,1],[1,1]];fillColor=none;align=center;verticalAlign=bottom;routingCenterY=0.5;snapToPoint=1;recursiveResize=0;autosize=1;treeFolding=1;treeMoving=1;newEdgeStyle={&quot;edgeStyle&quot;:&quot;entityRelationEdgeStyle&quot;,&quot;startArrow&quot;:&quot;none&quot;,&quot;endArrow&quot;:&quot;none&quot;,&quot;segment&quot;:10,&quot;curved&quot;:1};strokeColor=default;strokeWidth=1;" vertex="1" parent="1">
                    <mxGeometry x="434.01" y="1789" width="50" height="20" as="geometry"/>
                </mxCell>
                <mxCell id="406" value="" style="edgeStyle=entityRelationEdgeStyle;startArrow=none;endArrow=none;segment=10;curved=1;rounded=0;sketch=0;strokeColor=default;strokeWidth=1;jumpStyle=none;" edge="1" parent="1" target="405">
                    <mxGeometry relative="1" as="geometry">
                        <mxPoint x="377.50999999999965" y="1829" as="sourcePoint"/>
                    </mxGeometry>
                </mxCell>
                <mxCell id="407" value="44" style="whiteSpace=wrap;html=1;shape=partialRectangle;top=0;left=0;bottom=1;right=0;points=[[0,1],[1,1]];fillColor=none;align=center;verticalAlign=bottom;routingCenterY=0.5;snapToPoint=1;recursiveResize=0;autosize=1;treeFolding=1;treeMoving=1;newEdgeStyle={&quot;edgeStyle&quot;:&quot;entityRelationEdgeStyle&quot;,&quot;startArrow&quot;:&quot;none&quot;,&quot;endArrow&quot;:&quot;none&quot;,&quot;segment&quot;:10,&quot;curved&quot;:1};strokeColor=default;strokeWidth=1;" vertex="1" parent="1">
                    <mxGeometry x="651.7" y="1789" width="50" height="20" as="geometry"/>
                </mxCell>
                <mxCell id="408" value="" style="edgeStyle=entityRelationEdgeStyle;startArrow=none;endArrow=none;segment=10;curved=1;rounded=0;sketch=0;strokeColor=default;strokeWidth=1;jumpStyle=none;" edge="1" parent="1" target="407">
                    <mxGeometry relative="1" as="geometry">
                        <mxPoint x="595.1999999999998" y="1829" as="sourcePoint"/>
                    </mxGeometry>
                </mxCell>
                <mxCell id="409" value="431" style="whiteSpace=wrap;html=1;shape=partialRectangle;top=0;left=0;bottom=1;right=0;points=[[0,1],[1,1]];fillColor=none;align=center;verticalAlign=bottom;routingCenterY=0.5;snapToPoint=1;recursiveResize=0;autosize=1;treeFolding=1;treeMoving=1;newEdgeStyle={&quot;edgeStyle&quot;:&quot;entityRelationEdgeStyle&quot;,&quot;startArrow&quot;:&quot;none&quot;,&quot;endArrow&quot;:&quot;none&quot;,&quot;segment&quot;:10,&quot;curved&quot;:1};strokeColor=default;strokeWidth=1;" vertex="1" parent="1">
                    <mxGeometry x="466" y="1883.5" width="50" height="20" as="geometry"/>
                </mxCell>
                <mxCell id="410" value="" style="edgeStyle=entityRelationEdgeStyle;startArrow=none;endArrow=none;segment=10;curved=1;rounded=0;sketch=0;strokeColor=default;strokeWidth=1;jumpStyle=none;" edge="1" parent="1" target="409">
                    <mxGeometry relative="1" as="geometry">
                        <mxPoint x="409.4999999999999" y="1923.5" as="sourcePoint"/>
                    </mxGeometry>
                </mxCell>
                <mxCell id="411" value="432" style="whiteSpace=wrap;html=1;shape=partialRectangle;top=0;left=0;bottom=1;right=0;points=[[0,1],[1,1]];fillColor=none;align=center;verticalAlign=bottom;routingCenterY=0.5;snapToPoint=1;recursiveResize=0;autosize=1;treeFolding=1;treeMoving=1;newEdgeStyle={&quot;edgeStyle&quot;:&quot;entityRelationEdgeStyle&quot;,&quot;startArrow&quot;:&quot;none&quot;,&quot;endArrow&quot;:&quot;none&quot;,&quot;segment&quot;:10,&quot;curved&quot;:1};strokeColor=default;strokeWidth=1;" vertex="1" parent="1">
                    <mxGeometry x="470.39" y="1929" width="50" height="20" as="geometry"/>
                </mxCell>
                <mxCell id="412" value="" style="edgeStyle=entityRelationEdgeStyle;startArrow=none;endArrow=none;segment=10;curved=1;rounded=0;sketch=0;strokeColor=default;strokeWidth=1;jumpStyle=none;" edge="1" parent="1" target="411">
                    <mxGeometry relative="1" as="geometry">
                        <mxPoint x="413.88999999999976" y="1969" as="sourcePoint"/>
                    </mxGeometry>
                </mxCell>
                <mxCell id="413" value="433" style="whiteSpace=wrap;html=1;shape=partialRectangle;top=0;left=0;bottom=1;right=0;points=[[0,1],[1,1]];fillColor=none;align=center;verticalAlign=bottom;routingCenterY=0.5;snapToPoint=1;recursiveResize=0;autosize=1;treeFolding=1;treeMoving=1;newEdgeStyle={&quot;edgeStyle&quot;:&quot;entityRelationEdgeStyle&quot;,&quot;startArrow&quot;:&quot;none&quot;,&quot;endArrow&quot;:&quot;none&quot;,&quot;segment&quot;:10,&quot;curved&quot;:1};strokeColor=default;strokeWidth=1;" vertex="1" parent="1">
                    <mxGeometry x="470.39" y="1980" width="50" height="20" as="geometry"/>
                </mxCell>
                <mxCell id="414" value="" style="edgeStyle=entityRelationEdgeStyle;startArrow=none;endArrow=none;segment=10;curved=1;rounded=0;sketch=0;strokeColor=default;strokeWidth=1;jumpStyle=none;" edge="1" parent="1" target="413">
                    <mxGeometry relative="1" as="geometry">
                        <mxPoint x="413.88999999999976" y="2020" as="sourcePoint"/>
                    </mxGeometry>
                </mxCell>
                <mxCell id="415" value="434" style="whiteSpace=wrap;html=1;shape=partialRectangle;top=0;left=0;bottom=1;right=0;points=[[0,1],[1,1]];fillColor=none;align=center;verticalAlign=bottom;routingCenterY=0.5;snapToPoint=1;recursiveResize=0;autosize=1;treeFolding=1;treeMoving=1;newEdgeStyle={&quot;edgeStyle&quot;:&quot;entityRelationEdgeStyle&quot;,&quot;startArrow&quot;:&quot;none&quot;,&quot;endArrow&quot;:&quot;none&quot;,&quot;segment&quot;:10,&quot;curved&quot;:1};strokeColor=default;strokeWidth=1;" vertex="1" parent="1">
                    <mxGeometry x="466" y="2030" width="50" height="20" as="geometry"/>
                </mxCell>
                <mxCell id="416" value="" style="edgeStyle=entityRelationEdgeStyle;startArrow=none;endArrow=none;segment=10;curved=1;rounded=0;sketch=0;strokeColor=default;strokeWidth=1;jumpStyle=none;" edge="1" parent="1" target="415">
                    <mxGeometry relative="1" as="geometry">
                        <mxPoint x="409.49999999999966" y="2070" as="sourcePoint"/>
                    </mxGeometry>
                </mxCell>
                <mxCell id="425" value="441" style="whiteSpace=wrap;html=1;shape=partialRectangle;top=0;left=0;bottom=1;right=0;points=[[0,1],[1,1]];fillColor=none;align=center;verticalAlign=bottom;routingCenterY=0.5;snapToPoint=1;recursiveResize=0;autosize=1;treeFolding=1;treeMoving=1;newEdgeStyle={&quot;edgeStyle&quot;:&quot;entityRelationEdgeStyle&quot;,&quot;startArrow&quot;:&quot;none&quot;,&quot;endArrow&quot;:&quot;none&quot;,&quot;segment&quot;:10,&quot;curved&quot;:1};strokeColor=default;strokeWidth=1;" vertex="1" parent="1">
                    <mxGeometry x="708.2" y="1874" width="50" height="20" as="geometry"/>
                </mxCell>
                <mxCell id="426" value="" style="edgeStyle=entityRelationEdgeStyle;startArrow=none;endArrow=none;segment=10;curved=1;rounded=0;sketch=0;strokeColor=default;strokeWidth=1;jumpStyle=none;" edge="1" parent="1" target="425">
                    <mxGeometry relative="1" as="geometry">
                        <mxPoint x="651.7" y="1914" as="sourcePoint"/>
                    </mxGeometry>
                </mxCell>
                <mxCell id="427" value="442" style="whiteSpace=wrap;html=1;shape=partialRectangle;top=0;left=0;bottom=1;right=0;points=[[0,1],[1,1]];fillColor=none;align=center;verticalAlign=bottom;routingCenterY=0.5;snapToPoint=1;recursiveResize=0;autosize=1;treeFolding=1;treeMoving=1;newEdgeStyle={&quot;edgeStyle&quot;:&quot;entityRelationEdgeStyle&quot;,&quot;startArrow&quot;:&quot;none&quot;,&quot;endArrow&quot;:&quot;none&quot;,&quot;segment&quot;:10,&quot;curved&quot;:1};strokeColor=default;strokeWidth=1;" vertex="1" parent="1">
                    <mxGeometry x="712.5899999999999" y="1919.5" width="50" height="20" as="geometry"/>
                </mxCell>
                <mxCell id="428" value="" style="edgeStyle=entityRelationEdgeStyle;startArrow=none;endArrow=none;segment=10;curved=1;rounded=0;sketch=0;strokeColor=default;strokeWidth=1;jumpStyle=none;" edge="1" parent="1" target="427">
                    <mxGeometry relative="1" as="geometry">
                        <mxPoint x="656.0899999999999" y="1959.5" as="sourcePoint"/>
                    </mxGeometry>
                </mxCell>
                <mxCell id="429" value="443" style="whiteSpace=wrap;html=1;shape=partialRectangle;top=0;left=0;bottom=1;right=0;points=[[0,1],[1,1]];fillColor=none;align=center;verticalAlign=bottom;routingCenterY=0.5;snapToPoint=1;recursiveResize=0;autosize=1;treeFolding=1;treeMoving=1;newEdgeStyle={&quot;edgeStyle&quot;:&quot;entityRelationEdgeStyle&quot;,&quot;startArrow&quot;:&quot;none&quot;,&quot;endArrow&quot;:&quot;none&quot;,&quot;segment&quot;:10,&quot;curved&quot;:1};strokeColor=default;strokeWidth=1;" vertex="1" parent="1">
                    <mxGeometry x="712.5899999999999" y="1970.5" width="50" height="20" as="geometry"/>
                </mxCell>
                <mxCell id="430" value="" style="edgeStyle=entityRelationEdgeStyle;startArrow=none;endArrow=none;segment=10;curved=1;rounded=0;sketch=0;strokeColor=default;strokeWidth=1;jumpStyle=none;" edge="1" parent="1" target="429">
                    <mxGeometry relative="1" as="geometry">
                        <mxPoint x="656.0899999999999" y="2010.5" as="sourcePoint"/>
                    </mxGeometry>
                </mxCell>
                <mxCell id="431" value="444" style="whiteSpace=wrap;html=1;shape=partialRectangle;top=0;left=0;bottom=1;right=0;points=[[0,1],[1,1]];fillColor=none;align=center;verticalAlign=bottom;routingCenterY=0.5;snapToPoint=1;recursiveResize=0;autosize=1;treeFolding=1;treeMoving=1;newEdgeStyle={&quot;edgeStyle&quot;:&quot;entityRelationEdgeStyle&quot;,&quot;startArrow&quot;:&quot;none&quot;,&quot;endArrow&quot;:&quot;none&quot;,&quot;segment&quot;:10,&quot;curved&quot;:1};strokeColor=default;strokeWidth=1;" vertex="1" parent="1">
                    <mxGeometry x="708.2" y="2020.5" width="50" height="20" as="geometry"/>
                </mxCell>
                <mxCell id="432" value="" style="edgeStyle=entityRelationEdgeStyle;startArrow=none;endArrow=none;segment=10;curved=1;rounded=0;sketch=0;strokeColor=default;strokeWidth=1;jumpStyle=none;" edge="1" parent="1" target="431">
                    <mxGeometry relative="1" as="geometry">
                        <mxPoint x="651.6999999999996" y="2060.5" as="sourcePoint"/>
                    </mxGeometry>
                </mxCell>
                <mxCell id="436" value="" style="endArrow=classic;html=1;strokeWidth=2;labelBackgroundColor=none;fontColor=default;labelBorderColor=none;strokeColor=#999999;" edge="1" parent="1">
                    <mxGeometry width="50" height="50" relative="1" as="geometry">
                        <mxPoint x="312.01" y="3270" as="sourcePoint"/>
                        <mxPoint x="512.01" y="3270" as="targetPoint"/>
                    </mxGeometry>
                </mxCell>
                <mxCell id="437" value="审计请求" style="edgeLabel;html=1;align=center;verticalAlign=middle;resizable=0;points=[];labelBackgroundColor=none;fontColor=default;labelBorderColor=none;" vertex="1" connectable="0" parent="436">
                    <mxGeometry x="0.1721" y="-1" relative="1" as="geometry">
                        <mxPoint x="-16" as="offset"/>
                    </mxGeometry>
                </mxCell>
                <mxCell id="438" value="" style="endArrow=classic;html=1;strokeWidth=2;labelBackgroundColor=none;fontColor=default;labelBorderColor=none;strokeColor=#999999;" edge="1" parent="1">
                    <mxGeometry width="50" height="50" relative="1" as="geometry">
                        <mxPoint x="314" y="3170" as="sourcePoint"/>
                        <mxPoint x="514" y="3170" as="targetPoint"/>
                    </mxGeometry>
                </mxCell>
                <mxCell id="439" value="数据请求" style="edgeLabel;html=1;align=center;verticalAlign=middle;resizable=0;points=[];labelBackgroundColor=none;fontColor=default;labelBorderColor=none;" vertex="1" connectable="0" parent="438">
                    <mxGeometry x="0.1721" y="-1" relative="1" as="geometry">
                        <mxPoint x="-16" as="offset"/>
                    </mxGeometry>
                </mxCell>
                <mxCell id="440" value="" style="curved=1;endArrow=classic;html=1;strokeWidth=2;dashed=1;dashPattern=1 1;labelBackgroundColor=none;fontColor=default;labelBorderColor=none;strokeColor=#999999;" edge="1" parent="1">
                    <mxGeometry width="50" height="50" relative="1" as="geometry">
                        <mxPoint x="311" y="3126" as="sourcePoint"/>
                        <mxPoint x="311" y="3166" as="targetPoint"/>
                        <Array as="points">
                            <mxPoint x="341" y="3126"/>
                            <mxPoint x="341" y="3166"/>
                        </Array>
                    </mxGeometry>
                </mxCell>
                <mxCell id="441" value="数据和规则匹配" style="text;html=1;strokeColor=none;fillColor=none;align=center;verticalAlign=middle;whiteSpace=wrap;rounded=0;labelBackgroundColor=none;fontColor=default;labelBorderColor=none;" vertex="1" parent="1">
                    <mxGeometry x="337.5" y="3132" width="72.5" height="20" as="geometry"/>
                </mxCell>
                <mxCell id="442" value="" style="endArrow=classic;html=1;strokeWidth=2;labelBackgroundColor=none;fontColor=default;labelBorderColor=none;strokeColor=#999999;" edge="1" parent="1">
                    <mxGeometry width="50" height="50" relative="1" as="geometry">
                        <mxPoint x="312.01" y="3210" as="sourcePoint"/>
                        <mxPoint x="512.01" y="3210" as="targetPoint"/>
                    </mxGeometry>
                </mxCell>
                <mxCell id="443" value="数据密文集合" style="edgeLabel;html=1;align=center;verticalAlign=middle;resizable=0;points=[];labelBackgroundColor=none;fontColor=default;labelBorderColor=none;" vertex="1" connectable="0" parent="442">
                    <mxGeometry x="0.1721" y="-1" relative="1" as="geometry">
                        <mxPoint x="-16" as="offset"/>
                    </mxGeometry>
                </mxCell>
                <mxCell id="444" value="" style="curved=1;endArrow=classic;html=1;strokeWidth=2;dashed=1;dashPattern=1 1;labelBackgroundColor=none;fontColor=default;labelBorderColor=none;strokeColor=#999999;" edge="1" parent="1">
                    <mxGeometry width="50" height="50" relative="1" as="geometry">
                        <mxPoint x="512.01" y="3170" as="sourcePoint"/>
                        <mxPoint x="512.01" y="3210" as="targetPoint"/>
                        <Array as="points">
                            <mxPoint x="542.01" y="3170"/>
                            <mxPoint x="542.01" y="3210"/>
                        </Array>
                    </mxGeometry>
                </mxCell>
                <mxCell id="445" value="请求校验" style="text;html=1;strokeColor=none;fillColor=none;align=center;verticalAlign=middle;whiteSpace=wrap;rounded=0;labelBackgroundColor=none;fontColor=default;labelBorderColor=none;" vertex="1" parent="1">
                    <mxGeometry x="542.01" y="3180" width="60" height="20" as="geometry"/>
                </mxCell>
            </root>
        </mxGraphModel>
    </diagram>
</mxfile>